<?xml version="1.0" encoding="utf-8" standalone="no"?>
<!DOCTYPE svg PUBLIC "-//W3C//DTD SVG 1.1//EN"
  "http://www.w3.org/Graphics/SVG/1.1/DTD/svg11.dtd">
<!-- Created with matplotlib (http://matplotlib.org/) -->
<svg height="640pt" version="1.1" viewBox="0 0 640 640" width="640pt" xmlns="http://www.w3.org/2000/svg" xmlns:xlink="http://www.w3.org/1999/xlink">
 <defs>
  <style type="text/css">
*{stroke-linecap:butt;stroke-linejoin:round;stroke-miterlimit:100000;}
  </style>
 </defs>
 <g id="figure_1">
  <g id="patch_1">
   <path d="M 0 640 
L 640 640 
L 640 0 
L 0 0 
z
" style="fill:#ffffff;"/>
  </g>
  <g id="text_1">
   <path d="M 168.675781 306.40625 
L 171.633594 306.40625 
L 171.633594 315.373437 
L 182.386719 315.373437 
L 182.386719 306.40625 
L 185.344531 306.40625 
L 185.344531 328.278125 
L 182.386719 328.278125 
L 182.386719 317.8625 
L 171.633594 317.8625 
L 171.633594 328.278125 
L 168.675781 328.278125 
z
M 205.151563 319.4 
L 205.151563 320.717187 
L 192.757812 320.717187 
Q 192.935937 323.501562 194.435937 324.959375 
Q 195.935937 326.417188 198.617188 326.417188 
Q 200.16875 326.417188 201.626563 326.0375 
Q 203.084375 325.657812 204.523438 324.89375 
L 204.523438 327.44375 
Q 203.070312 328.057813 201.546875 328.38125 
Q 200.023438 328.704687 198.457812 328.704687 
Q 194.529687 328.704687 192.2375 326.421875 
Q 189.945312 324.134375 189.945312 320.234375 
Q 189.945312 316.207812 192.120313 313.845312 
Q 194.295312 311.478125 197.989062 311.478125 
Q 201.298438 311.478125 203.225 313.610937 
Q 205.151563 315.739062 205.151563 319.4 
M 202.45625 318.607812 
Q 202.428125 316.4 201.21875 315.082812 
Q 200.009375 313.760938 198.017188 313.760938 
Q 195.7625 313.760938 194.407813 315.035937 
Q 193.053125 316.310937 192.846875 318.626562 
z
M 209.574219 305.482812 
L 212.269531 305.482812 
L 212.269531 328.278125 
L 209.574219 328.278125 
z
M 217.90918 305.482812 
L 220.604492 305.482812 
L 220.604492 328.278125 
L 217.90918 328.278125 
z
M 232.600391 313.760938 
Q 230.434766 313.760938 229.173828 315.453125 
Q 227.912891 317.145312 227.912891 320.089063 
Q 227.912891 323.032812 229.164453 324.725 
Q 230.420703 326.417188 232.600391 326.417188 
Q 234.756641 326.417188 236.012891 324.720312 
Q 237.273828 323.01875 237.273828 320.089063 
Q 237.273828 317.173437 236.012891 315.467187 
Q 234.756641 313.760938 232.600391 313.760938 
M 232.600391 311.478125 
Q 236.116016 311.478125 238.122266 313.765625 
Q 240.133203 316.048437 240.133203 320.089063 
Q 240.133203 324.115625 238.122266 326.4125 
Q 236.116016 328.704687 232.600391 328.704687 
Q 229.070703 328.704687 227.069141 326.4125 
Q 225.072266 324.115625 225.072266 320.089063 
Q 225.072266 316.048437 227.069141 313.765625 
Q 229.070703 311.478125 232.600391 311.478125 
M 254.251953 306.40625 
L 258.236328 306.40625 
L 267.934766 324.701562 
L 267.934766 306.40625 
L 270.803516 306.40625 
L 270.803516 328.278125 
L 266.819141 328.278125 
L 257.125391 309.982812 
L 257.125391 328.278125 
L 254.251953 328.278125 
z
M 282.932422 313.760938 
Q 280.766797 313.760938 279.505859 315.453125 
Q 278.244922 317.145312 278.244922 320.089063 
Q 278.244922 323.032812 279.496484 324.725 
Q 280.752734 326.417188 282.932422 326.417188 
Q 285.088672 326.417188 286.344922 324.720312 
Q 287.605859 323.01875 287.605859 320.089063 
Q 287.605859 317.173437 286.344922 315.467187 
Q 285.088672 313.760938 282.932422 313.760938 
M 282.932422 311.478125 
Q 286.448047 311.478125 288.454297 313.765625 
Q 290.465234 316.048437 290.465234 320.089063 
Q 290.465234 324.115625 288.454297 326.4125 
Q 286.448047 328.704687 282.932422 328.704687 
Q 279.402734 328.704687 277.401172 326.4125 
Q 275.404297 324.115625 275.404297 320.089063 
Q 275.404297 316.048437 277.401172 313.765625 
Q 279.402734 311.478125 282.932422 311.478125 
M 304.436914 314.389062 
Q 303.982227 314.126562 303.447852 314.004687 
Q 302.913477 313.878125 302.271289 313.878125 
Q 299.983789 313.878125 298.760352 315.364062 
Q 297.536914 316.85 297.536914 319.634375 
L 297.536914 328.278125 
L 294.827539 328.278125 
L 294.827539 311.871875 
L 297.536914 311.871875 
L 297.536914 314.421875 
Q 298.390039 312.926562 299.749414 312.204687 
Q 301.113477 311.478125 303.063477 311.478125 
Q 303.340039 311.478125 303.677539 311.515625 
Q 304.015039 311.548437 304.422852 311.623437 
z
M 320.033398 315.021875 
Q 321.045898 313.203125 322.452148 312.340625 
Q 323.858398 311.478125 325.761523 311.478125 
Q 328.325586 311.478125 329.717773 313.273438 
Q 331.109961 315.064062 331.109961 318.373437 
L 331.109961 328.278125 
L 328.400586 328.278125 
L 328.400586 318.4625 
Q 328.400586 316.104688 327.561523 314.965625 
Q 326.727148 313.821875 325.016211 313.821875 
Q 322.920898 313.821875 321.702148 315.214063 
Q 320.488086 316.601562 320.488086 319.00625 
L 320.488086 328.278125 
L 317.778711 328.278125 
L 317.778711 318.4625 
Q 317.778711 316.090625 316.944336 314.95625 
Q 316.109961 313.821875 314.366211 313.821875 
Q 312.299023 313.821875 311.080273 315.21875 
Q 309.866211 316.615625 309.866211 319.00625 
L 309.866211 328.278125 
L 307.156836 328.278125 
L 307.156836 311.871875 
L 309.866211 311.871875 
L 309.866211 314.421875 
Q 310.789648 312.9125 312.078711 312.195312 
Q 313.367773 311.478125 315.139648 311.478125 
Q 316.930273 311.478125 318.181836 312.3875 
Q 319.433398 313.292188 320.033398 315.021875 
M 343.941406 320.032812 
Q 340.674219 320.032812 339.413281 320.778125 
Q 338.152344 321.523438 338.152344 323.328125 
Q 338.152344 324.7625 339.099219 325.60625 
Q 340.046094 326.445312 341.667969 326.445312 
Q 343.913281 326.445312 345.267969 324.85625 
Q 346.622656 323.267187 346.622656 320.632812 
L 346.622656 320.032812 
z
M 349.317969 318.917188 
L 349.317969 328.278125 
L 346.622656 328.278125 
L 346.622656 325.789062 
Q 345.699219 327.279687 344.321094 327.992188 
Q 342.942969 328.704687 340.950781 328.704687 
Q 338.433594 328.704687 336.942969 327.289062 
Q 335.457031 325.873437 335.457031 323.501562 
Q 335.457031 320.735937 337.308594 319.329687 
Q 339.164844 317.923437 342.839844 317.923437 
L 346.622656 317.923437 
L 346.622656 317.65625 
Q 346.622656 315.795312 345.399219 314.778125 
Q 344.175781 313.760938 341.963281 313.760938 
Q 340.557031 313.760938 339.221094 314.098437 
Q 337.889844 314.435937 336.661719 315.110937 
L 336.661719 312.617188 
Q 338.138281 312.045312 339.530469 311.764062 
Q 340.922656 311.478125 342.239844 311.478125 
Q 345.802344 311.478125 347.560156 313.325 
Q 349.317969 315.167188 349.317969 318.917188 
M 354.867383 305.482812 
L 357.562695 305.482812 
L 357.562695 328.278125 
L 354.867383 328.278125 
z
M 369.822852 306.40625 
L 388.324414 306.40625 
L 388.324414 308.9 
L 380.561914 308.9 
L 380.561914 328.278125 
L 377.590039 328.278125 
L 377.590039 308.9 
L 369.822852 308.9 
z
M 405.018359 319.4 
L 405.018359 320.717187 
L 392.624609 320.717187 
Q 392.802734 323.501562 394.302734 324.959375 
Q 395.802734 326.417188 398.483984 326.417188 
Q 400.035547 326.417188 401.493359 326.0375 
Q 402.951172 325.657812 404.390234 324.89375 
L 404.390234 327.44375 
Q 402.937109 328.057813 401.413672 328.38125 
Q 399.890234 328.704687 398.324609 328.704687 
Q 394.396484 328.704687 392.104297 326.421875 
Q 389.812109 324.134375 389.812109 320.234375 
Q 389.812109 316.207812 391.987109 313.845312 
Q 394.162109 311.478125 397.855859 311.478125 
Q 401.165234 311.478125 403.091797 313.610937 
Q 405.018359 315.739062 405.018359 319.4 
M 402.323047 318.607812 
Q 402.294922 316.4 401.085547 315.082812 
Q 399.876172 313.760938 397.883984 313.760938 
Q 395.629297 313.760938 394.274609 315.035937 
Q 392.919922 316.310937 392.713672 318.626562 
z
M 423.076953 311.871875 
L 417.142578 319.854688 
L 423.381641 328.278125 
L 420.203516 328.278125 
L 415.426953 321.832812 
L 410.655078 328.278125 
L 407.472266 328.278125 
L 413.847266 319.695312 
L 408.016016 311.871875 
L 411.194141 311.871875 
L 415.544141 317.717187 
L 419.894141 311.871875 
z
M 429.857422 307.2125 
L 429.857422 311.871875 
L 435.407422 311.871875 
L 435.407422 313.967187 
L 429.857422 313.967187 
L 429.857422 322.873437 
Q 429.857422 324.879687 430.405859 325.451562 
Q 430.954297 326.023438 432.641797 326.023438 
L 435.407422 326.023438 
L 435.407422 328.278125 
L 432.641797 328.278125 
Q 429.519922 328.278125 428.333984 327.115625 
Q 427.148047 325.948438 427.148047 322.873437 
L 427.148047 313.967187 
L 425.169922 313.967187 
L 425.169922 311.871875 
L 427.148047 311.871875 
L 427.148047 307.2125 
z
M 448.86875 324.55625 
L 451.9625 324.55625 
L 451.9625 328.278125 
L 448.86875 328.278125 
z
M 458.404883 324.55625 
L 461.498633 324.55625 
L 461.498633 328.278125 
L 458.404883 328.278125 
z
M 467.941016 324.55625 
L 471.034766 324.55625 
L 471.034766 328.278125 
L 467.941016 328.278125 
z
"/>
  </g>
 </g>
</svg>
