<?xml version="1.0" encoding="utf-8" standalone="no"?>
<!DOCTYPE svg PUBLIC "-//W3C//DTD SVG 1.1//EN"
  "http://www.w3.org/Graphics/SVG/1.1/DTD/svg11.dtd">
<!-- Created with matplotlib (http://matplotlib.org/) -->
<svg height="640pt" version="1.1" viewBox="0 0 640 640" width="640pt" xmlns="http://www.w3.org/2000/svg" xmlns:xlink="http://www.w3.org/1999/xlink">
 <defs>
  <style type="text/css">
*{stroke-linecap:butt;stroke-linejoin:round;stroke-miterlimit:100000;}
  </style>
 </defs>
 <g id="figure_1">
  <g id="patch_1">
   <path d="M 0 640 
L 640 640 
L 640 0 
L 0 0 
z
" style="fill:#ffffff;"/>
  </g>
  <g id="axes_1">
   <g id="patch_2">
    <path d="M 24.595 611.42625 
L 617.498125 611.42625 
L 617.498125 18.766875 
L 24.595 18.766875 
z
" style="fill:#ffffff;"/>
   </g>
   <path clip-path="url(#p6796b3d0bb)" d="M 26.595 613.42625 
L 224.229375 257.830625 
L 421.86375 376.3625 
L 619.498125 20.766875 
" style="fill:none;opacity:0.3;stroke:#000000;stroke-linecap:square;stroke-width:5.0;"/>
   <path clip-path="url(#p6796b3d0bb)" d="M 24.595 611.42625 
L 222.229375 255.830625 
L 419.86375 374.3625 
L 617.498125 18.766875 
" style="fill:none;stroke:#008000;stroke-linecap:square;stroke-width:5.0;"/>
   <g id="patch_3">
    <path d="M 24.595 611.42625 
L 24.595 18.766875 
" style="fill:none;stroke:#000000;stroke-linecap:square;stroke-linejoin:miter;"/>
   </g>
   <g id="patch_4">
    <path d="M 617.498125 611.42625 
L 617.498125 18.766875 
" style="fill:none;stroke:#000000;stroke-linecap:square;stroke-linejoin:miter;"/>
   </g>
   <g id="patch_5">
    <path d="M 24.595 611.42625 
L 617.498125 611.42625 
" style="fill:none;stroke:#000000;stroke-linecap:square;stroke-linejoin:miter;"/>
   </g>
   <g id="patch_6">
    <path d="M 24.595 18.766875 
L 617.498125 18.766875 
" style="fill:none;stroke:#000000;stroke-linecap:square;stroke-linejoin:miter;"/>
   </g>
   <g id="matplotlib.axis_1">
    <g id="xtick_1">
     <g id="line2d_1">
      <defs>
       <path d="M 0 0 
L 0 -4 
" id="ma5241e0356" style="stroke:#000000;stroke-width:0.5;"/>
      </defs>
      <g>
       <use style="stroke:#000000;stroke-width:0.5;" x="24.595" xlink:href="#ma5241e0356" y="611.42625"/>
      </g>
     </g>
     <g id="line2d_2">
      <defs>
       <path d="M 0 0 
L 0 4 
" id="m05c53dfe45" style="stroke:#000000;stroke-width:0.5;"/>
      </defs>
      <g>
       <use style="stroke:#000000;stroke-width:0.5;" x="24.595" xlink:href="#m05c53dfe45" y="18.766875"/>
      </g>
     </g>
     <g id="text_1">
      <!-- 0.0 -->
      <defs>
       <path d="M 31.78125 66.40625 
Q 24.171875 66.40625 20.328125 58.90625 
Q 16.5 51.421875 16.5 36.375 
Q 16.5 21.390625 20.328125 13.890625 
Q 24.171875 6.390625 31.78125 6.390625 
Q 39.453125 6.390625 43.28125 13.890625 
Q 47.125 21.390625 47.125 36.375 
Q 47.125 51.421875 43.28125 58.90625 
Q 39.453125 66.40625 31.78125 66.40625 
M 31.78125 74.21875 
Q 44.046875 74.21875 50.515625 64.515625 
Q 56.984375 54.828125 56.984375 36.375 
Q 56.984375 17.96875 50.515625 8.265625 
Q 44.046875 -1.421875 31.78125 -1.421875 
Q 19.53125 -1.421875 13.0625 8.265625 
Q 6.59375 17.96875 6.59375 36.375 
Q 6.59375 54.828125 13.0625 64.515625 
Q 19.53125 74.21875 31.78125 74.21875 
" id="BitstreamVeraSans-Roman-30"/>
       <path d="M 10.6875 12.40625 
L 21 12.40625 
L 21 0 
L 10.6875 0 
z
" id="BitstreamVeraSans-Roman-2e"/>
      </defs>
      <g transform="translate(15.053125 624.544375)scale(0.12 -0.12)">
       <use xlink:href="#BitstreamVeraSans-Roman-30"/>
       <use x="63.623046875" xlink:href="#BitstreamVeraSans-Roman-2e"/>
       <use x="95.41015625" xlink:href="#BitstreamVeraSans-Roman-30"/>
      </g>
     </g>
    </g>
    <g id="xtick_2">
     <g id="line2d_3">
      <g>
       <use style="stroke:#000000;stroke-width:0.5;" x="123.4121875" xlink:href="#ma5241e0356" y="611.42625"/>
      </g>
     </g>
     <g id="line2d_4">
      <g>
       <use style="stroke:#000000;stroke-width:0.5;" x="123.4121875" xlink:href="#m05c53dfe45" y="18.766875"/>
      </g>
     </g>
     <g id="text_2">
      <!-- 0.5 -->
      <defs>
       <path d="M 10.796875 72.90625 
L 49.515625 72.90625 
L 49.515625 64.59375 
L 19.828125 64.59375 
L 19.828125 46.734375 
Q 21.96875 47.46875 24.109375 47.828125 
Q 26.265625 48.1875 28.421875 48.1875 
Q 40.625 48.1875 47.75 41.5 
Q 54.890625 34.8125 54.890625 23.390625 
Q 54.890625 11.625 47.5625 5.09375 
Q 40.234375 -1.421875 26.90625 -1.421875 
Q 22.3125 -1.421875 17.546875 -0.640625 
Q 12.796875 0.140625 7.71875 1.703125 
L 7.71875 11.625 
Q 12.109375 9.234375 16.796875 8.0625 
Q 21.484375 6.890625 26.703125 6.890625 
Q 35.15625 6.890625 40.078125 11.328125 
Q 45.015625 15.765625 45.015625 23.390625 
Q 45.015625 31 40.078125 35.4375 
Q 35.15625 39.890625 26.703125 39.890625 
Q 22.75 39.890625 18.8125 39.015625 
Q 14.890625 38.140625 10.796875 36.28125 
z
" id="BitstreamVeraSans-Roman-35"/>
      </defs>
      <g transform="translate(113.8703125 624.544375)scale(0.12 -0.12)">
       <use xlink:href="#BitstreamVeraSans-Roman-30"/>
       <use x="63.623046875" xlink:href="#BitstreamVeraSans-Roman-2e"/>
       <use x="95.41015625" xlink:href="#BitstreamVeraSans-Roman-35"/>
      </g>
     </g>
    </g>
    <g id="xtick_3">
     <g id="line2d_5">
      <g>
       <use style="stroke:#000000;stroke-width:0.5;" x="222.229375" xlink:href="#ma5241e0356" y="611.42625"/>
      </g>
     </g>
     <g id="line2d_6">
      <g>
       <use style="stroke:#000000;stroke-width:0.5;" x="222.229375" xlink:href="#m05c53dfe45" y="18.766875"/>
      </g>
     </g>
     <g id="text_3">
      <!-- 1.0 -->
      <defs>
       <path d="M 12.40625 8.296875 
L 28.515625 8.296875 
L 28.515625 63.921875 
L 10.984375 60.40625 
L 10.984375 69.390625 
L 28.421875 72.90625 
L 38.28125 72.90625 
L 38.28125 8.296875 
L 54.390625 8.296875 
L 54.390625 0 
L 12.40625 0 
z
" id="BitstreamVeraSans-Roman-31"/>
      </defs>
      <g transform="translate(212.6875 624.544375)scale(0.12 -0.12)">
       <use xlink:href="#BitstreamVeraSans-Roman-31"/>
       <use x="63.623046875" xlink:href="#BitstreamVeraSans-Roman-2e"/>
       <use x="95.41015625" xlink:href="#BitstreamVeraSans-Roman-30"/>
      </g>
     </g>
    </g>
    <g id="xtick_4">
     <g id="line2d_7">
      <g>
       <use style="stroke:#000000;stroke-width:0.5;" x="321.0465625" xlink:href="#ma5241e0356" y="611.42625"/>
      </g>
     </g>
     <g id="line2d_8">
      <g>
       <use style="stroke:#000000;stroke-width:0.5;" x="321.0465625" xlink:href="#m05c53dfe45" y="18.766875"/>
      </g>
     </g>
     <g id="text_4">
      <!-- 1.5 -->
      <g transform="translate(311.5046875 624.544375)scale(0.12 -0.12)">
       <use xlink:href="#BitstreamVeraSans-Roman-31"/>
       <use x="63.623046875" xlink:href="#BitstreamVeraSans-Roman-2e"/>
       <use x="95.41015625" xlink:href="#BitstreamVeraSans-Roman-35"/>
      </g>
     </g>
    </g>
    <g id="xtick_5">
     <g id="line2d_9">
      <g>
       <use style="stroke:#000000;stroke-width:0.5;" x="419.86375" xlink:href="#ma5241e0356" y="611.42625"/>
      </g>
     </g>
     <g id="line2d_10">
      <g>
       <use style="stroke:#000000;stroke-width:0.5;" x="419.86375" xlink:href="#m05c53dfe45" y="18.766875"/>
      </g>
     </g>
     <g id="text_5">
      <!-- 2.0 -->
      <defs>
       <path d="M 19.1875 8.296875 
L 53.609375 8.296875 
L 53.609375 0 
L 7.328125 0 
L 7.328125 8.296875 
Q 12.9375 14.109375 22.625 23.890625 
Q 32.328125 33.6875 34.8125 36.53125 
Q 39.546875 41.84375 41.421875 45.53125 
Q 43.3125 49.21875 43.3125 52.78125 
Q 43.3125 58.59375 39.234375 62.25 
Q 35.15625 65.921875 28.609375 65.921875 
Q 23.96875 65.921875 18.8125 64.3125 
Q 13.671875 62.703125 7.8125 59.421875 
L 7.8125 69.390625 
Q 13.765625 71.78125 18.9375 73 
Q 24.125 74.21875 28.421875 74.21875 
Q 39.75 74.21875 46.484375 68.546875 
Q 53.21875 62.890625 53.21875 53.421875 
Q 53.21875 48.921875 51.53125 44.890625 
Q 49.859375 40.875 45.40625 35.40625 
Q 44.1875 33.984375 37.640625 27.21875 
Q 31.109375 20.453125 19.1875 8.296875 
" id="BitstreamVeraSans-Roman-32"/>
      </defs>
      <g transform="translate(410.321875 624.544375)scale(0.12 -0.12)">
       <use xlink:href="#BitstreamVeraSans-Roman-32"/>
       <use x="63.623046875" xlink:href="#BitstreamVeraSans-Roman-2e"/>
       <use x="95.41015625" xlink:href="#BitstreamVeraSans-Roman-30"/>
      </g>
     </g>
    </g>
    <g id="xtick_6">
     <g id="line2d_11">
      <g>
       <use style="stroke:#000000;stroke-width:0.5;" x="518.6809375" xlink:href="#ma5241e0356" y="611.42625"/>
      </g>
     </g>
     <g id="line2d_12">
      <g>
       <use style="stroke:#000000;stroke-width:0.5;" x="518.6809375" xlink:href="#m05c53dfe45" y="18.766875"/>
      </g>
     </g>
     <g id="text_6">
      <!-- 2.5 -->
      <g transform="translate(509.1390625 624.544375)scale(0.12 -0.12)">
       <use xlink:href="#BitstreamVeraSans-Roman-32"/>
       <use x="63.623046875" xlink:href="#BitstreamVeraSans-Roman-2e"/>
       <use x="95.41015625" xlink:href="#BitstreamVeraSans-Roman-35"/>
      </g>
     </g>
    </g>
    <g id="xtick_7">
     <g id="line2d_13">
      <g>
       <use style="stroke:#000000;stroke-width:0.5;" x="617.498125" xlink:href="#ma5241e0356" y="611.42625"/>
      </g>
     </g>
     <g id="line2d_14">
      <g>
       <use style="stroke:#000000;stroke-width:0.5;" x="617.498125" xlink:href="#m05c53dfe45" y="18.766875"/>
      </g>
     </g>
     <g id="text_7">
      <!-- 3.0 -->
      <defs>
       <path d="M 40.578125 39.3125 
Q 47.65625 37.796875 51.625 33 
Q 55.609375 28.21875 55.609375 21.1875 
Q 55.609375 10.40625 48.1875 4.484375 
Q 40.765625 -1.421875 27.09375 -1.421875 
Q 22.515625 -1.421875 17.65625 -0.515625 
Q 12.796875 0.390625 7.625 2.203125 
L 7.625 11.71875 
Q 11.71875 9.328125 16.59375 8.109375 
Q 21.484375 6.890625 26.8125 6.890625 
Q 36.078125 6.890625 40.9375 10.546875 
Q 45.796875 14.203125 45.796875 21.1875 
Q 45.796875 27.640625 41.28125 31.265625 
Q 36.765625 34.90625 28.71875 34.90625 
L 20.21875 34.90625 
L 20.21875 43.015625 
L 29.109375 43.015625 
Q 36.375 43.015625 40.234375 45.921875 
Q 44.09375 48.828125 44.09375 54.296875 
Q 44.09375 59.90625 40.109375 62.90625 
Q 36.140625 65.921875 28.71875 65.921875 
Q 24.65625 65.921875 20.015625 65.03125 
Q 15.375 64.15625 9.8125 62.3125 
L 9.8125 71.09375 
Q 15.4375 72.65625 20.34375 73.4375 
Q 25.25 74.21875 29.59375 74.21875 
Q 40.828125 74.21875 47.359375 69.109375 
Q 53.90625 64.015625 53.90625 55.328125 
Q 53.90625 49.265625 50.4375 45.09375 
Q 46.96875 40.921875 40.578125 39.3125 
" id="BitstreamVeraSans-Roman-33"/>
      </defs>
      <g transform="translate(607.95625 624.544375)scale(0.12 -0.12)">
       <use xlink:href="#BitstreamVeraSans-Roman-33"/>
       <use x="63.623046875" xlink:href="#BitstreamVeraSans-Roman-2e"/>
       <use x="95.41015625" xlink:href="#BitstreamVeraSans-Roman-30"/>
      </g>
     </g>
    </g>
   </g>
   <g id="matplotlib.axis_2">
    <g id="ytick_1">
     <g id="line2d_15">
      <defs>
       <path d="M 0 0 
L 4 0 
" id="mfd81b01048" style="stroke:#000000;stroke-width:0.5;"/>
      </defs>
      <g>
       <use style="stroke:#000000;stroke-width:0.5;" x="24.595" xlink:href="#mfd81b01048" y="611.42625"/>
      </g>
     </g>
     <g id="line2d_16">
      <defs>
       <path d="M 0 0 
L -4 0 
" id="m41d267a020" style="stroke:#000000;stroke-width:0.5;"/>
      </defs>
      <g>
       <use style="stroke:#000000;stroke-width:0.5;" x="617.498125" xlink:href="#m41d267a020" y="611.42625"/>
      </g>
     </g>
     <g id="text_8">
      <!-- 0 -->
      <g transform="translate(12.96 614.7375)scale(0.12 -0.12)">
       <use xlink:href="#BitstreamVeraSans-Roman-30"/>
      </g>
     </g>
    </g>
    <g id="ytick_2">
     <g id="line2d_17">
      <g>
       <use style="stroke:#000000;stroke-width:0.5;" x="24.595" xlink:href="#mfd81b01048" y="492.894375"/>
      </g>
     </g>
     <g id="line2d_18">
      <g>
       <use style="stroke:#000000;stroke-width:0.5;" x="617.498125" xlink:href="#m41d267a020" y="492.894375"/>
      </g>
     </g>
     <g id="text_9">
      <!-- 1 -->
      <g transform="translate(12.96 496.205625)scale(0.12 -0.12)">
       <use xlink:href="#BitstreamVeraSans-Roman-31"/>
      </g>
     </g>
    </g>
    <g id="ytick_3">
     <g id="line2d_19">
      <g>
       <use style="stroke:#000000;stroke-width:0.5;" x="24.595" xlink:href="#mfd81b01048" y="374.3625"/>
      </g>
     </g>
     <g id="line2d_20">
      <g>
       <use style="stroke:#000000;stroke-width:0.5;" x="617.498125" xlink:href="#m41d267a020" y="374.3625"/>
      </g>
     </g>
     <g id="text_10">
      <!-- 2 -->
      <g transform="translate(12.96 377.67375)scale(0.12 -0.12)">
       <use xlink:href="#BitstreamVeraSans-Roman-32"/>
      </g>
     </g>
    </g>
    <g id="ytick_4">
     <g id="line2d_21">
      <g>
       <use style="stroke:#000000;stroke-width:0.5;" x="24.595" xlink:href="#mfd81b01048" y="255.830625"/>
      </g>
     </g>
     <g id="line2d_22">
      <g>
       <use style="stroke:#000000;stroke-width:0.5;" x="617.498125" xlink:href="#m41d267a020" y="255.830625"/>
      </g>
     </g>
     <g id="text_11">
      <!-- 3 -->
      <g transform="translate(12.96 259.141875)scale(0.12 -0.12)">
       <use xlink:href="#BitstreamVeraSans-Roman-33"/>
      </g>
     </g>
    </g>
    <g id="ytick_5">
     <g id="line2d_23">
      <g>
       <use style="stroke:#000000;stroke-width:0.5;" x="24.595" xlink:href="#mfd81b01048" y="137.29875"/>
      </g>
     </g>
     <g id="line2d_24">
      <g>
       <use style="stroke:#000000;stroke-width:0.5;" x="617.498125" xlink:href="#m41d267a020" y="137.29875"/>
      </g>
     </g>
     <g id="text_12">
      <!-- 4 -->
      <defs>
       <path d="M 37.796875 64.3125 
L 12.890625 25.390625 
L 37.796875 25.390625 
z
M 35.203125 72.90625 
L 47.609375 72.90625 
L 47.609375 25.390625 
L 58.015625 25.390625 
L 58.015625 17.1875 
L 47.609375 17.1875 
L 47.609375 0 
L 37.796875 0 
L 37.796875 17.1875 
L 4.890625 17.1875 
L 4.890625 26.703125 
z
" id="BitstreamVeraSans-Roman-34"/>
      </defs>
      <g transform="translate(12.96 140.61)scale(0.12 -0.12)">
       <use xlink:href="#BitstreamVeraSans-Roman-34"/>
      </g>
     </g>
    </g>
    <g id="ytick_6">
     <g id="line2d_25">
      <g>
       <use style="stroke:#000000;stroke-width:0.5;" x="24.595" xlink:href="#mfd81b01048" y="18.766875"/>
      </g>
     </g>
     <g id="line2d_26">
      <g>
       <use style="stroke:#000000;stroke-width:0.5;" x="617.498125" xlink:href="#m41d267a020" y="18.766875"/>
      </g>
     </g>
     <g id="text_13">
      <!-- 5 -->
      <g transform="translate(12.96 22.078125)scale(0.12 -0.12)">
       <use xlink:href="#BitstreamVeraSans-Roman-35"/>
      </g>
     </g>
    </g>
   </g>
   <g id="text_14">
    <path d="M 126.589687 545.411563 
L 127.772812 545.411563 
L 127.772812 548.998438 
L 132.074062 548.998438 
L 132.074062 545.411563 
L 133.257187 545.411563 
L 133.257187 554.160313 
L 132.074062 554.160313 
L 132.074062 549.994063 
L 127.772812 549.994063 
L 127.772812 554.160313 
L 126.589687 554.160313 
z
M 141.18 550.609063 
L 141.18 551.135938 
L 136.2225 551.135938 
Q 136.29375 552.249688 136.89375 552.832813 
Q 137.49375 553.415938 138.56625 553.415938 
Q 139.186875 553.415938 139.77 553.264063 
Q 140.353125 553.112188 140.92875 552.806563 
L 140.92875 553.826563 
Q 140.3475 554.072188 139.738125 554.201563 
Q 139.12875 554.330938 138.5025 554.330938 
Q 136.93125 554.330938 136.014375 553.417813 
Q 135.0975 552.502813 135.0975 550.942813 
Q 135.0975 549.332188 135.9675 548.387187 
Q 136.8375 547.440313 138.315 547.440313 
Q 139.63875 547.440313 140.409375 548.293437 
Q 141.18 549.144688 141.18 550.609063 
M 140.101875 550.292188 
Q 140.090625 549.409063 139.606875 548.882187 
Q 139.123125 548.353438 138.32625 548.353438 
Q 137.424375 548.353438 136.8825 548.863438 
Q 136.340625 549.373438 136.258125 550.299688 
z
M 142.949062 545.042188 
L 144.027187 545.042188 
L 144.027187 554.160313 
L 142.949062 554.160313 
z
M 146.283047 545.042188 
L 147.361172 545.042188 
L 147.361172 554.160313 
L 146.283047 554.160313 
z
M 152.159531 548.353438 
Q 151.293281 548.353438 150.788906 549.030313 
Q 150.284531 549.707188 150.284531 550.884688 
Q 150.284531 552.062188 150.785156 552.739063 
Q 151.287656 553.415938 152.159531 553.415938 
Q 153.022031 553.415938 153.524531 552.737188 
Q 154.028906 552.056563 154.028906 550.884688 
Q 154.028906 549.718438 153.524531 549.035938 
Q 153.022031 548.353438 152.159531 548.353438 
M 152.159531 547.440313 
Q 153.565781 547.440313 154.368281 548.355313 
Q 155.172656 549.268438 155.172656 550.884688 
Q 155.172656 552.495313 154.368281 553.414062 
Q 153.565781 554.330938 152.159531 554.330938 
Q 150.747656 554.330938 149.947031 553.414062 
Q 149.148281 552.495313 149.148281 550.884688 
Q 149.148281 549.268438 149.947031 548.355313 
Q 150.747656 547.440313 152.159531 547.440313 
M 160.820156 545.411563 
L 162.413906 545.411563 
L 166.293281 552.729688 
L 166.293281 545.411563 
L 167.440781 545.411563 
L 167.440781 554.160313 
L 165.847031 554.160313 
L 161.969531 546.842188 
L 161.969531 554.160313 
L 160.820156 554.160313 
z
M 172.292344 548.353438 
Q 171.426094 548.353438 170.921719 549.030313 
Q 170.417344 549.707188 170.417344 550.884688 
Q 170.417344 552.062188 170.917969 552.739063 
Q 171.420469 553.415938 172.292344 553.415938 
Q 173.154844 553.415938 173.657344 552.737188 
Q 174.161719 552.056563 174.161719 550.884688 
Q 174.161719 549.718438 173.657344 549.035938 
Q 173.154844 548.353438 172.292344 548.353438 
M 172.292344 547.440313 
Q 173.698594 547.440313 174.501094 548.355313 
Q 175.305469 549.268438 175.305469 550.884688 
Q 175.305469 552.495313 174.501094 553.414062 
Q 173.698594 554.330938 172.292344 554.330938 
Q 170.880469 554.330938 170.079844 553.414062 
Q 169.281094 552.495313 169.281094 550.884688 
Q 169.281094 549.268438 170.079844 548.355313 
Q 170.880469 547.440313 172.292344 547.440313 
M 180.894141 548.604688 
Q 180.712266 548.499688 180.498516 548.450938 
Q 180.284766 548.400313 180.027891 548.400313 
Q 179.112891 548.400313 178.623516 548.994688 
Q 178.134141 549.589063 178.134141 550.702813 
L 178.134141 554.160313 
L 177.050391 554.160313 
L 177.050391 547.597813 
L 178.134141 547.597813 
L 178.134141 548.617813 
Q 178.475391 548.019688 179.019141 547.730937 
Q 179.564766 547.440313 180.344766 547.440313 
Q 180.455391 547.440313 180.590391 547.455312 
Q 180.725391 547.468438 180.888516 547.498438 
z
M 187.132734 548.857813 
Q 187.537734 548.130313 188.100234 547.785313 
Q 188.662734 547.440313 189.423984 547.440313 
Q 190.449609 547.440313 191.006484 548.158437 
Q 191.563359 548.874688 191.563359 550.198438 
L 191.563359 554.160313 
L 190.479609 554.160313 
L 190.479609 550.234063 
Q 190.479609 549.290938 190.143984 548.835312 
Q 189.810234 548.377813 189.125859 548.377813 
Q 188.287734 548.377813 187.800234 548.934687 
Q 187.314609 549.489688 187.314609 550.451563 
L 187.314609 554.160313 
L 186.230859 554.160313 
L 186.230859 550.234063 
Q 186.230859 549.285313 185.897109 548.831563 
Q 185.563359 548.377813 184.865859 548.377813 
Q 184.038984 548.377813 183.551484 548.936563 
Q 183.065859 549.495313 183.065859 550.451563 
L 183.065859 554.160313 
L 181.982109 554.160313 
L 181.982109 547.597813 
L 183.065859 547.597813 
L 183.065859 548.617813 
Q 183.435234 548.014063 183.950859 547.727188 
Q 184.466484 547.440313 185.175234 547.440313 
Q 185.891484 547.440313 186.392109 547.804062 
Q 186.892734 548.165938 187.132734 548.857813 
M 196.695937 550.862188 
Q 195.389062 550.862188 194.884687 551.160313 
Q 194.380313 551.458438 194.380313 552.180313 
Q 194.380313 552.754063 194.759062 553.091563 
Q 195.137812 553.427188 195.786563 553.427188 
Q 196.684687 553.427188 197.226562 552.791563 
Q 197.768438 552.155938 197.768438 551.102188 
L 197.768438 550.862188 
z
M 198.846563 550.415938 
L 198.846563 554.160313 
L 197.768438 554.160313 
L 197.768438 553.164688 
Q 197.399062 553.760938 196.847812 554.045938 
Q 196.296562 554.330938 195.499687 554.330938 
Q 194.492812 554.330938 193.896562 553.764688 
Q 193.302188 553.198438 193.302188 552.249688 
Q 193.302188 551.143438 194.042812 550.580938 
Q 194.785312 550.018438 196.255313 550.018438 
L 197.768438 550.018438 
L 197.768438 549.911563 
Q 197.768438 549.167188 197.279062 548.760313 
Q 196.789687 548.353438 195.904687 548.353438 
Q 195.342187 548.353438 194.807812 548.488438 
Q 194.275312 548.623438 193.784063 548.893438 
L 193.784063 547.895938 
Q 194.374687 547.667188 194.931562 547.554688 
Q 195.488437 547.440313 196.015312 547.440313 
Q 197.440313 547.440313 198.143438 548.179062 
Q 198.846563 548.915938 198.846563 550.415938 
M 201.066328 545.042188 
L 202.144453 545.042188 
L 202.144453 554.160313 
L 201.066328 554.160313 
z
M 208.366641 552.671563 
L 209.604141 552.671563 
L 209.604141 554.160313 
L 208.366641 554.160313 
z
M 212.181094 552.671563 
L 213.418594 552.671563 
L 213.418594 554.160313 
L 212.181094 554.160313 
z
M 215.995547 552.671563 
L 217.233047 552.671563 
L 217.233047 554.160313 
L 215.995547 554.160313 
z
" style="opacity:0.3;"/>
    <path d="M 124.589687 543.411563 
L 125.772812 543.411563 
L 125.772812 546.998438 
L 130.074062 546.998438 
L 130.074062 543.411563 
L 131.257187 543.411563 
L 131.257187 552.160313 
L 130.074062 552.160313 
L 130.074062 547.994063 
L 125.772812 547.994063 
L 125.772812 552.160313 
L 124.589687 552.160313 
z
M 139.18 548.609063 
L 139.18 549.135938 
L 134.2225 549.135938 
Q 134.29375 550.249688 134.89375 550.832813 
Q 135.49375 551.415938 136.56625 551.415938 
Q 137.186875 551.415938 137.77 551.264063 
Q 138.353125 551.112188 138.92875 550.806563 
L 138.92875 551.826563 
Q 138.3475 552.072188 137.738125 552.201563 
Q 137.12875 552.330938 136.5025 552.330938 
Q 134.93125 552.330938 134.014375 551.417813 
Q 133.0975 550.502813 133.0975 548.942813 
Q 133.0975 547.332188 133.9675 546.387187 
Q 134.8375 545.440313 136.315 545.440313 
Q 137.63875 545.440313 138.409375 546.293437 
Q 139.18 547.144688 139.18 548.609063 
M 138.101875 548.292188 
Q 138.090625 547.409063 137.606875 546.882187 
Q 137.123125 546.353438 136.32625 546.353438 
Q 135.424375 546.353438 134.8825 546.863438 
Q 134.340625 547.373438 134.258125 548.299688 
z
M 140.949062 543.042188 
L 142.027187 543.042188 
L 142.027187 552.160313 
L 140.949062 552.160313 
z
M 144.283047 543.042188 
L 145.361172 543.042188 
L 145.361172 552.160313 
L 144.283047 552.160313 
z
M 150.159531 546.353438 
Q 149.293281 546.353438 148.788906 547.030313 
Q 148.284531 547.707188 148.284531 548.884688 
Q 148.284531 550.062188 148.785156 550.739063 
Q 149.287656 551.415938 150.159531 551.415938 
Q 151.022031 551.415938 151.524531 550.737188 
Q 152.028906 550.056563 152.028906 548.884688 
Q 152.028906 547.718438 151.524531 547.035938 
Q 151.022031 546.353438 150.159531 546.353438 
M 150.159531 545.440313 
Q 151.565781 545.440313 152.368281 546.355313 
Q 153.172656 547.268438 153.172656 548.884688 
Q 153.172656 550.495313 152.368281 551.414062 
Q 151.565781 552.330938 150.159531 552.330938 
Q 148.747656 552.330938 147.947031 551.414062 
Q 147.148281 550.495313 147.148281 548.884688 
Q 147.148281 547.268438 147.947031 546.355313 
Q 148.747656 545.440313 150.159531 545.440313 
M 158.820156 543.411563 
L 160.413906 543.411563 
L 164.293281 550.729688 
L 164.293281 543.411563 
L 165.440781 543.411563 
L 165.440781 552.160313 
L 163.847031 552.160313 
L 159.969531 544.842188 
L 159.969531 552.160313 
L 158.820156 552.160313 
z
M 170.292344 546.353438 
Q 169.426094 546.353438 168.921719 547.030313 
Q 168.417344 547.707188 168.417344 548.884688 
Q 168.417344 550.062188 168.917969 550.739063 
Q 169.420469 551.415938 170.292344 551.415938 
Q 171.154844 551.415938 171.657344 550.737188 
Q 172.161719 550.056563 172.161719 548.884688 
Q 172.161719 547.718438 171.657344 547.035938 
Q 171.154844 546.353438 170.292344 546.353438 
M 170.292344 545.440313 
Q 171.698594 545.440313 172.501094 546.355313 
Q 173.305469 547.268438 173.305469 548.884688 
Q 173.305469 550.495313 172.501094 551.414062 
Q 171.698594 552.330938 170.292344 552.330938 
Q 168.880469 552.330938 168.079844 551.414062 
Q 167.281094 550.495313 167.281094 548.884688 
Q 167.281094 547.268438 168.079844 546.355313 
Q 168.880469 545.440313 170.292344 545.440313 
M 178.894141 546.604688 
Q 178.712266 546.499688 178.498516 546.450938 
Q 178.284766 546.400313 178.027891 546.400313 
Q 177.112891 546.400313 176.623516 546.994688 
Q 176.134141 547.589063 176.134141 548.702813 
L 176.134141 552.160313 
L 175.050391 552.160313 
L 175.050391 545.597813 
L 176.134141 545.597813 
L 176.134141 546.617813 
Q 176.475391 546.019688 177.019141 545.730937 
Q 177.564766 545.440313 178.344766 545.440313 
Q 178.455391 545.440313 178.590391 545.455312 
Q 178.725391 545.468438 178.888516 545.498438 
z
M 185.132734 546.857813 
Q 185.537734 546.130313 186.100234 545.785313 
Q 186.662734 545.440313 187.423984 545.440313 
Q 188.449609 545.440313 189.006484 546.158437 
Q 189.563359 546.874688 189.563359 548.198438 
L 189.563359 552.160313 
L 188.479609 552.160313 
L 188.479609 548.234063 
Q 188.479609 547.290938 188.143984 546.835312 
Q 187.810234 546.377813 187.125859 546.377813 
Q 186.287734 546.377813 185.800234 546.934687 
Q 185.314609 547.489688 185.314609 548.451563 
L 185.314609 552.160313 
L 184.230859 552.160313 
L 184.230859 548.234063 
Q 184.230859 547.285313 183.897109 546.831563 
Q 183.563359 546.377813 182.865859 546.377813 
Q 182.038984 546.377813 181.551484 546.936563 
Q 181.065859 547.495313 181.065859 548.451563 
L 181.065859 552.160313 
L 179.982109 552.160313 
L 179.982109 545.597813 
L 181.065859 545.597813 
L 181.065859 546.617813 
Q 181.435234 546.014063 181.950859 545.727188 
Q 182.466484 545.440313 183.175234 545.440313 
Q 183.891484 545.440313 184.392109 545.804062 
Q 184.892734 546.165938 185.132734 546.857813 
M 194.695937 548.862188 
Q 193.389062 548.862188 192.884687 549.160313 
Q 192.380313 549.458438 192.380313 550.180313 
Q 192.380313 550.754063 192.759062 551.091563 
Q 193.137812 551.427188 193.786563 551.427188 
Q 194.684687 551.427188 195.226562 550.791563 
Q 195.768438 550.155938 195.768438 549.102188 
L 195.768438 548.862188 
z
M 196.846563 548.415938 
L 196.846563 552.160313 
L 195.768438 552.160313 
L 195.768438 551.164688 
Q 195.399062 551.760938 194.847812 552.045938 
Q 194.296562 552.330938 193.499687 552.330938 
Q 192.492812 552.330938 191.896562 551.764688 
Q 191.302188 551.198438 191.302188 550.249688 
Q 191.302188 549.143438 192.042812 548.580938 
Q 192.785312 548.018438 194.255313 548.018438 
L 195.768438 548.018438 
L 195.768438 547.911563 
Q 195.768438 547.167188 195.279062 546.760313 
Q 194.789687 546.353438 193.904687 546.353438 
Q 193.342187 546.353438 192.807812 546.488438 
Q 192.275312 546.623438 191.784063 546.893438 
L 191.784063 545.895938 
Q 192.374687 545.667188 192.931562 545.554688 
Q 193.488437 545.440313 194.015312 545.440313 
Q 195.440313 545.440313 196.143438 546.179062 
Q 196.846563 546.915938 196.846563 548.415938 
M 199.066328 543.042188 
L 200.144453 543.042188 
L 200.144453 552.160313 
L 199.066328 552.160313 
z
M 206.366641 550.671563 
L 207.604141 550.671563 
L 207.604141 552.160313 
L 206.366641 552.160313 
z
M 210.181094 550.671563 
L 211.418594 550.671563 
L 211.418594 552.160313 
L 210.181094 552.160313 
z
M 213.995547 550.671563 
L 215.233047 550.671563 
L 215.233047 552.160313 
L 213.995547 552.160313 
z
"/>
   </g>
  </g>
 </g>
 <defs>
  <clipPath id="p6796b3d0bb">
   <rect height="592.659375" width="592.903125" x="24.595" y="18.766875"/>
  </clipPath>
 </defs>
</svg>
