<?xml version="1.0" encoding="utf-8" standalone="no"?>
<!DOCTYPE svg PUBLIC "-//W3C//DTD SVG 1.1//EN"
  "http://www.w3.org/Graphics/SVG/1.1/DTD/svg11.dtd">
<!-- Created with matplotlib (http://matplotlib.org/) -->
<svg height="640pt" version="1.1" viewBox="0 0 640 640" width="640pt" xmlns="http://www.w3.org/2000/svg" xmlns:xlink="http://www.w3.org/1999/xlink">
 <defs>
  <style type="text/css">
*{stroke-linecap:butt;stroke-linejoin:round;stroke-miterlimit:100000;}
  </style>
 </defs>
 <g id="figure_1">
  <g id="patch_1">
   <path d="M 0 640 
L 640 640 
L 640 0 
L 0 0 
z
" style="fill:#ffffff;"/>
  </g>
  <g id="text_1">
   <path d="M 216.089844 306.40625 
L 219.047656 306.40625 
L 219.047656 315.373437 
L 229.800781 315.373437 
L 229.800781 306.40625 
L 232.758594 306.40625 
L 232.758594 328.278125 
L 229.800781 328.278125 
L 229.800781 317.8625 
L 219.047656 317.8625 
L 219.047656 328.278125 
L 216.089844 328.278125 
z
M 252.565625 319.4 
L 252.565625 320.717187 
L 240.171875 320.717187 
Q 240.35 323.501562 241.85 324.959375 
Q 243.35 326.417188 246.03125 326.417188 
Q 247.582812 326.417188 249.040625 326.0375 
Q 250.498437 325.657812 251.9375 324.89375 
L 251.9375 327.44375 
Q 250.484375 328.057813 248.960938 328.38125 
Q 247.4375 328.704687 245.871875 328.704687 
Q 241.94375 328.704687 239.651563 326.421875 
Q 237.359375 324.134375 237.359375 320.234375 
Q 237.359375 316.207812 239.534375 313.845312 
Q 241.709375 311.478125 245.403125 311.478125 
Q 248.7125 311.478125 250.639062 313.610937 
Q 252.565625 315.739062 252.565625 319.4 
M 249.870313 318.607812 
Q 249.842187 316.4 248.632812 315.082812 
Q 247.423438 313.760938 245.43125 313.760938 
Q 243.176562 313.760938 241.821875 315.035937 
Q 240.467187 316.310937 240.260938 318.626562 
z
M 256.988281 305.482812 
L 259.683594 305.482812 
L 259.683594 328.278125 
L 256.988281 328.278125 
z
M 265.323242 305.482812 
L 268.018555 305.482812 
L 268.018555 328.278125 
L 265.323242 328.278125 
z
M 280.014453 313.760938 
Q 277.848828 313.760938 276.587891 315.453125 
Q 275.326953 317.145312 275.326953 320.089063 
Q 275.326953 323.032812 276.578516 324.725 
Q 277.834766 326.417188 280.014453 326.417188 
Q 282.170703 326.417188 283.426953 324.720312 
Q 284.687891 323.01875 284.687891 320.089063 
Q 284.687891 317.173437 283.426953 315.467187 
Q 282.170703 313.760938 280.014453 313.760938 
M 280.014453 311.478125 
Q 283.530078 311.478125 285.536328 313.765625 
Q 287.547266 316.048437 287.547266 320.089063 
Q 287.547266 324.115625 285.536328 326.4125 
Q 283.530078 328.704687 280.014453 328.704687 
Q 276.484766 328.704687 274.483203 326.4125 
Q 272.486328 324.115625 272.486328 320.089063 
Q 272.486328 316.048437 274.483203 313.765625 
Q 276.484766 311.478125 280.014453 311.478125 
M 309.006641 320.032812 
Q 305.739453 320.032812 304.478516 320.778125 
Q 303.217578 321.523438 303.217578 323.328125 
Q 303.217578 324.7625 304.164453 325.60625 
Q 305.111328 326.445312 306.733203 326.445312 
Q 308.978516 326.445312 310.333203 324.85625 
Q 311.687891 323.267187 311.687891 320.632812 
L 311.687891 320.032812 
z
M 314.383203 318.917188 
L 314.383203 328.278125 
L 311.687891 328.278125 
L 311.687891 325.789062 
Q 310.764453 327.279687 309.386328 327.992188 
Q 308.008203 328.704687 306.016016 328.704687 
Q 303.498828 328.704687 302.008203 327.289062 
Q 300.522266 325.873437 300.522266 323.501562 
Q 300.522266 320.735937 302.373828 319.329687 
Q 304.230078 317.923437 307.905078 317.923437 
L 311.687891 317.923437 
L 311.687891 317.65625 
Q 311.687891 315.795312 310.464453 314.778125 
Q 309.241016 313.760938 307.028516 313.760938 
Q 305.622266 313.760938 304.286328 314.098437 
Q 302.955078 314.435937 301.726953 315.110937 
L 301.726953 312.617188 
Q 303.203516 312.045312 304.595703 311.764062 
Q 305.987891 311.478125 307.305078 311.478125 
Q 310.867578 311.478125 312.625391 313.325 
Q 314.383203 315.167188 314.383203 318.917188 
M 332.706055 315.021875 
Q 333.718555 313.203125 335.124805 312.340625 
Q 336.531055 311.478125 338.43418 311.478125 
Q 340.998242 311.478125 342.39043 313.273438 
Q 343.782617 315.064062 343.782617 318.373437 
L 343.782617 328.278125 
L 341.073242 328.278125 
L 341.073242 318.4625 
Q 341.073242 316.104688 340.23418 314.965625 
Q 339.399805 313.821875 337.688867 313.821875 
Q 335.593555 313.821875 334.374805 315.214063 
Q 333.160742 316.601562 333.160742 319.00625 
L 333.160742 328.278125 
L 330.451367 328.278125 
L 330.451367 318.4625 
Q 330.451367 316.090625 329.616992 314.95625 
Q 328.782617 313.821875 327.038867 313.821875 
Q 324.97168 313.821875 323.75293 315.21875 
Q 322.538867 316.615625 322.538867 319.00625 
L 322.538867 328.278125 
L 319.829492 328.278125 
L 319.829492 311.871875 
L 322.538867 311.871875 
L 322.538867 314.421875 
Q 323.462305 312.9125 324.751367 312.195312 
Q 326.04043 311.478125 327.812305 311.478125 
Q 329.60293 311.478125 330.854492 312.3875 
Q 332.106055 313.292188 332.706055 315.021875 
M 356.614062 320.032812 
Q 353.346875 320.032812 352.085938 320.778125 
Q 350.825 321.523438 350.825 323.328125 
Q 350.825 324.7625 351.771875 325.60625 
Q 352.71875 326.445312 354.340625 326.445312 
Q 356.585938 326.445312 357.940625 324.85625 
Q 359.295313 323.267187 359.295313 320.632812 
L 359.295313 320.032812 
z
M 361.990625 318.917188 
L 361.990625 328.278125 
L 359.295313 328.278125 
L 359.295313 325.789062 
Q 358.371875 327.279687 356.99375 327.992188 
Q 355.615625 328.704687 353.623438 328.704687 
Q 351.10625 328.704687 349.615625 327.289062 
Q 348.129687 325.873437 348.129687 323.501562 
Q 348.129687 320.735937 349.98125 319.329687 
Q 351.8375 317.923437 355.5125 317.923437 
L 359.295313 317.923437 
L 359.295313 317.65625 
Q 359.295313 315.795312 358.071875 314.778125 
Q 356.848437 313.760938 354.635938 313.760938 
Q 353.229688 313.760938 351.89375 314.098437 
Q 350.5625 314.435937 349.334375 315.110937 
L 349.334375 312.617188 
Q 350.810938 312.045312 352.203125 311.764062 
Q 353.595312 311.478125 354.9125 311.478125 
Q 358.475 311.478125 360.232813 313.325 
Q 361.990625 315.167188 361.990625 318.917188 
M 366.368164 311.871875 
L 379.169727 311.871875 
L 379.169727 314.332812 
L 369.035352 326.126562 
L 379.169727 326.126562 
L 379.169727 328.278125 
L 366.002539 328.278125 
L 366.002539 325.817187 
L 376.141602 314.023438 
L 366.368164 314.023438 
z
M 383.287109 311.871875 
L 385.982422 311.871875 
L 385.982422 328.278125 
L 383.287109 328.278125 
z
M 383.287109 305.482812 
L 385.982422 305.482812 
L 385.982422 308.9 
L 383.287109 308.9 
z
M 405.262695 318.373437 
L 405.262695 328.278125 
L 402.567383 328.278125 
L 402.567383 318.4625 
Q 402.567383 316.132812 401.658008 314.979688 
Q 400.748633 313.821875 398.93457 313.821875 
Q 396.750195 313.821875 395.489258 315.214063 
Q 394.22832 316.601562 394.22832 319.00625 
L 394.22832 328.278125 
L 391.518945 328.278125 
L 391.518945 311.871875 
L 394.22832 311.871875 
L 394.22832 314.421875 
Q 395.198633 312.940625 396.506445 312.209375 
Q 397.818945 311.478125 399.53457 311.478125 
Q 402.361133 311.478125 403.80957 313.226562 
Q 405.262695 314.975 405.262695 318.373437 
M 421.431055 319.882812 
Q 421.431055 316.953125 420.22168 315.345312 
Q 419.016992 313.732812 416.832617 313.732812 
Q 414.666992 313.732812 413.457617 315.345312 
Q 412.248242 316.953125 412.248242 319.882812 
Q 412.248242 322.798437 413.457617 324.410937 
Q 414.666992 326.023438 416.832617 326.023438 
Q 419.016992 326.023438 420.22168 324.410937 
Q 421.431055 322.798437 421.431055 319.882812 
M 424.126367 326.24375 
Q 424.126367 330.429688 422.26543 332.473437 
Q 420.40918 334.517187 416.570117 334.517187 
Q 415.149805 334.517187 413.888867 334.30625 
Q 412.62793 334.095312 411.441992 333.654687 
L 411.441992 331.034375 
Q 412.62793 331.676562 413.785742 331.98125 
Q 414.943555 332.290625 416.143555 332.290625 
Q 418.79668 332.290625 420.113867 330.907812 
Q 421.431055 329.525 421.431055 326.726562 
L 421.431055 325.390625 
Q 420.59668 326.84375 419.293555 327.560937 
Q 417.99043 328.278125 416.17168 328.278125 
Q 413.157617 328.278125 411.310742 325.98125 
Q 409.463867 323.679688 409.463867 319.882812 
Q 409.463867 316.076562 411.310742 313.779687 
Q 413.157617 311.478125 416.17168 311.478125 
Q 417.99043 311.478125 419.293555 312.195312 
Q 420.59668 312.9125 421.431055 314.360937 
L 421.431055 311.871875 
L 424.126367 311.871875 
z
" style="fill:#ffffff;stroke:#000000;stroke-width:3.0;"/>
   <path d="M 216.089844 306.40625 
L 219.047656 306.40625 
L 219.047656 315.373437 
L 229.800781 315.373437 
L 229.800781 306.40625 
L 232.758594 306.40625 
L 232.758594 328.278125 
L 229.800781 328.278125 
L 229.800781 317.8625 
L 219.047656 317.8625 
L 219.047656 328.278125 
L 216.089844 328.278125 
z
M 252.565625 319.4 
L 252.565625 320.717187 
L 240.171875 320.717187 
Q 240.35 323.501562 241.85 324.959375 
Q 243.35 326.417188 246.03125 326.417188 
Q 247.582812 326.417188 249.040625 326.0375 
Q 250.498437 325.657812 251.9375 324.89375 
L 251.9375 327.44375 
Q 250.484375 328.057813 248.960938 328.38125 
Q 247.4375 328.704687 245.871875 328.704687 
Q 241.94375 328.704687 239.651563 326.421875 
Q 237.359375 324.134375 237.359375 320.234375 
Q 237.359375 316.207812 239.534375 313.845312 
Q 241.709375 311.478125 245.403125 311.478125 
Q 248.7125 311.478125 250.639062 313.610937 
Q 252.565625 315.739062 252.565625 319.4 
M 249.870313 318.607812 
Q 249.842187 316.4 248.632812 315.082812 
Q 247.423438 313.760938 245.43125 313.760938 
Q 243.176562 313.760938 241.821875 315.035937 
Q 240.467187 316.310937 240.260938 318.626562 
z
M 256.988281 305.482812 
L 259.683594 305.482812 
L 259.683594 328.278125 
L 256.988281 328.278125 
z
M 265.323242 305.482812 
L 268.018555 305.482812 
L 268.018555 328.278125 
L 265.323242 328.278125 
z
M 280.014453 313.760938 
Q 277.848828 313.760938 276.587891 315.453125 
Q 275.326953 317.145312 275.326953 320.089063 
Q 275.326953 323.032812 276.578516 324.725 
Q 277.834766 326.417188 280.014453 326.417188 
Q 282.170703 326.417188 283.426953 324.720312 
Q 284.687891 323.01875 284.687891 320.089063 
Q 284.687891 317.173437 283.426953 315.467187 
Q 282.170703 313.760938 280.014453 313.760938 
M 280.014453 311.478125 
Q 283.530078 311.478125 285.536328 313.765625 
Q 287.547266 316.048437 287.547266 320.089063 
Q 287.547266 324.115625 285.536328 326.4125 
Q 283.530078 328.704687 280.014453 328.704687 
Q 276.484766 328.704687 274.483203 326.4125 
Q 272.486328 324.115625 272.486328 320.089063 
Q 272.486328 316.048437 274.483203 313.765625 
Q 276.484766 311.478125 280.014453 311.478125 
M 309.006641 320.032812 
Q 305.739453 320.032812 304.478516 320.778125 
Q 303.217578 321.523438 303.217578 323.328125 
Q 303.217578 324.7625 304.164453 325.60625 
Q 305.111328 326.445312 306.733203 326.445312 
Q 308.978516 326.445312 310.333203 324.85625 
Q 311.687891 323.267187 311.687891 320.632812 
L 311.687891 320.032812 
z
M 314.383203 318.917188 
L 314.383203 328.278125 
L 311.687891 328.278125 
L 311.687891 325.789062 
Q 310.764453 327.279687 309.386328 327.992188 
Q 308.008203 328.704687 306.016016 328.704687 
Q 303.498828 328.704687 302.008203 327.289062 
Q 300.522266 325.873437 300.522266 323.501562 
Q 300.522266 320.735937 302.373828 319.329687 
Q 304.230078 317.923437 307.905078 317.923437 
L 311.687891 317.923437 
L 311.687891 317.65625 
Q 311.687891 315.795312 310.464453 314.778125 
Q 309.241016 313.760938 307.028516 313.760938 
Q 305.622266 313.760938 304.286328 314.098437 
Q 302.955078 314.435937 301.726953 315.110937 
L 301.726953 312.617188 
Q 303.203516 312.045312 304.595703 311.764062 
Q 305.987891 311.478125 307.305078 311.478125 
Q 310.867578 311.478125 312.625391 313.325 
Q 314.383203 315.167188 314.383203 318.917188 
M 332.706055 315.021875 
Q 333.718555 313.203125 335.124805 312.340625 
Q 336.531055 311.478125 338.43418 311.478125 
Q 340.998242 311.478125 342.39043 313.273438 
Q 343.782617 315.064062 343.782617 318.373437 
L 343.782617 328.278125 
L 341.073242 328.278125 
L 341.073242 318.4625 
Q 341.073242 316.104688 340.23418 314.965625 
Q 339.399805 313.821875 337.688867 313.821875 
Q 335.593555 313.821875 334.374805 315.214063 
Q 333.160742 316.601562 333.160742 319.00625 
L 333.160742 328.278125 
L 330.451367 328.278125 
L 330.451367 318.4625 
Q 330.451367 316.090625 329.616992 314.95625 
Q 328.782617 313.821875 327.038867 313.821875 
Q 324.97168 313.821875 323.75293 315.21875 
Q 322.538867 316.615625 322.538867 319.00625 
L 322.538867 328.278125 
L 319.829492 328.278125 
L 319.829492 311.871875 
L 322.538867 311.871875 
L 322.538867 314.421875 
Q 323.462305 312.9125 324.751367 312.195312 
Q 326.04043 311.478125 327.812305 311.478125 
Q 329.60293 311.478125 330.854492 312.3875 
Q 332.106055 313.292188 332.706055 315.021875 
M 356.614062 320.032812 
Q 353.346875 320.032812 352.085938 320.778125 
Q 350.825 321.523438 350.825 323.328125 
Q 350.825 324.7625 351.771875 325.60625 
Q 352.71875 326.445312 354.340625 326.445312 
Q 356.585938 326.445312 357.940625 324.85625 
Q 359.295313 323.267187 359.295313 320.632812 
L 359.295313 320.032812 
z
M 361.990625 318.917188 
L 361.990625 328.278125 
L 359.295313 328.278125 
L 359.295313 325.789062 
Q 358.371875 327.279687 356.99375 327.992188 
Q 355.615625 328.704687 353.623438 328.704687 
Q 351.10625 328.704687 349.615625 327.289062 
Q 348.129687 325.873437 348.129687 323.501562 
Q 348.129687 320.735937 349.98125 319.329687 
Q 351.8375 317.923437 355.5125 317.923437 
L 359.295313 317.923437 
L 359.295313 317.65625 
Q 359.295313 315.795312 358.071875 314.778125 
Q 356.848437 313.760938 354.635938 313.760938 
Q 353.229688 313.760938 351.89375 314.098437 
Q 350.5625 314.435937 349.334375 315.110937 
L 349.334375 312.617188 
Q 350.810938 312.045312 352.203125 311.764062 
Q 353.595312 311.478125 354.9125 311.478125 
Q 358.475 311.478125 360.232813 313.325 
Q 361.990625 315.167188 361.990625 318.917188 
M 366.368164 311.871875 
L 379.169727 311.871875 
L 379.169727 314.332812 
L 369.035352 326.126562 
L 379.169727 326.126562 
L 379.169727 328.278125 
L 366.002539 328.278125 
L 366.002539 325.817187 
L 376.141602 314.023438 
L 366.368164 314.023438 
z
M 383.287109 311.871875 
L 385.982422 311.871875 
L 385.982422 328.278125 
L 383.287109 328.278125 
z
M 383.287109 305.482812 
L 385.982422 305.482812 
L 385.982422 308.9 
L 383.287109 308.9 
z
M 405.262695 318.373437 
L 405.262695 328.278125 
L 402.567383 328.278125 
L 402.567383 318.4625 
Q 402.567383 316.132812 401.658008 314.979688 
Q 400.748633 313.821875 398.93457 313.821875 
Q 396.750195 313.821875 395.489258 315.214063 
Q 394.22832 316.601562 394.22832 319.00625 
L 394.22832 328.278125 
L 391.518945 328.278125 
L 391.518945 311.871875 
L 394.22832 311.871875 
L 394.22832 314.421875 
Q 395.198633 312.940625 396.506445 312.209375 
Q 397.818945 311.478125 399.53457 311.478125 
Q 402.361133 311.478125 403.80957 313.226562 
Q 405.262695 314.975 405.262695 318.373437 
M 421.431055 319.882812 
Q 421.431055 316.953125 420.22168 315.345312 
Q 419.016992 313.732812 416.832617 313.732812 
Q 414.666992 313.732812 413.457617 315.345312 
Q 412.248242 316.953125 412.248242 319.882812 
Q 412.248242 322.798437 413.457617 324.410937 
Q 414.666992 326.023438 416.832617 326.023438 
Q 419.016992 326.023438 420.22168 324.410937 
Q 421.431055 322.798437 421.431055 319.882812 
M 424.126367 326.24375 
Q 424.126367 330.429688 422.26543 332.473437 
Q 420.40918 334.517187 416.570117 334.517187 
Q 415.149805 334.517187 413.888867 334.30625 
Q 412.62793 334.095312 411.441992 333.654687 
L 411.441992 331.034375 
Q 412.62793 331.676562 413.785742 331.98125 
Q 414.943555 332.290625 416.143555 332.290625 
Q 418.79668 332.290625 420.113867 330.907812 
Q 421.431055 329.525 421.431055 326.726562 
L 421.431055 325.390625 
Q 420.59668 326.84375 419.293555 327.560937 
Q 417.99043 328.278125 416.17168 328.278125 
Q 413.157617 328.278125 411.310742 325.98125 
Q 409.463867 323.679688 409.463867 319.882812 
Q 409.463867 316.076562 411.310742 313.779687 
Q 413.157617 311.478125 416.17168 311.478125 
Q 417.99043 311.478125 419.293555 312.195312 
Q 420.59668 312.9125 421.431055 314.360937 
L 421.431055 311.871875 
L 424.126367 311.871875 
z
" style="fill:#ffffff;"/>
  </g>
 </g>
</svg>
