<?xml version="1.0" encoding="utf-8" standalone="no"?>
<!DOCTYPE svg PUBLIC "-//W3C//DTD SVG 1.1//EN"
  "http://www.w3.org/Graphics/SVG/1.1/DTD/svg11.dtd">
<!-- Created with matplotlib (http://matplotlib.org/) -->
<svg height="640pt" version="1.1" viewBox="0 0 640 640" width="640pt" xmlns="http://www.w3.org/2000/svg" xmlns:xlink="http://www.w3.org/1999/xlink">
 <defs>
  <style type="text/css">
*{stroke-linecap:butt;stroke-linejoin:round;stroke-miterlimit:100000;}
  </style>
 </defs>
 <g id="figure_1">
  <g id="patch_1">
   <path d="M 0 640 
L 640 640 
L 640 0 
L 0 0 
z
" style="fill:#ffffff;"/>
  </g>
  <g id="axes_1">
   <g id="patch_2">
    <path d="M 46.099375 611.42625 
L 617.498125 611.42625 
L 617.498125 18.766875 
L 46.099375 18.766875 
z
" style="fill:#ffffff;"/>
   </g>
   <g id="PathCollection_1">
    <path clip-path="url(#pbf45555c44)" d="M 441.474252 163.169561 
L 440.579972 164.958121 
L 442.368531 164.958121 
z
" style="fill:#0000bf;stroke:#000000;"/>
    <path clip-path="url(#pbf45555c44)" d="M 459.637663 335.412165 
L 458.8856 336.916292 
L 460.389726 336.916292 
z
" style="fill:#0000ad;stroke:#000000;"/>
    <path clip-path="url(#pbf45555c44)" d="M 445.293784 438.023315 
L 439.407082 449.796718 
L 451.180485 449.796718 
z
" style="fill:#beff39;stroke:#000000;"/>
    <path clip-path="url(#pbf45555c44)" d="M 384.210762 183.013627 
L 375.141157 201.152838 
L 393.280368 201.152838 
z
" style="fill:#df0000;stroke:#000000;"/>
    <path clip-path="url(#pbf45555c44)" d="M 560.361488 137.360973 
L 557.039534 144.004881 
L 563.683442 144.004881 
z
" style="fill:#00bcff;stroke:#000000;"/>
    <path clip-path="url(#pbf45555c44)" d="M 444.031636 88.703787 
L 436.957244 102.852571 
L 451.106028 102.852571 
z
" style="fill:#ffc100;stroke:#000000;"/>
    <path clip-path="url(#pbf45555c44)" d="M 440.330547 459.943112 
L 439.982747 460.638712 
L 440.678347 460.638712 
z
" style="fill:#000080;stroke:#000000;"/>
    <path clip-path="url(#pbf45555c44)" d="M 449.869255 84.274447 
L 444.030607 95.951743 
L 455.707903 95.951743 
z
" style="fill:#baff3c;stroke:#000000;"/>
    <path clip-path="url(#pbf45555c44)" d="M 287.702054 85.01332 
L 285.252452 89.912523 
L 290.151655 89.912523 
z
" style="fill:#0060ff;stroke:#000000;"/>
    <path clip-path="url(#pbf45555c44)" d="M 556.49419 105.22086 
L 553.300007 111.609227 
L 559.688374 111.609227 
z
" style="fill:#00b0ff;stroke:#000000;"/>
    <path clip-path="url(#pbf45555c44)" d="M 438.962866 361.0373 
L 433.333678 372.295675 
L 444.592053 372.295675 
z
" style="fill:#aaff4d;stroke:#000000;"/>
    <path clip-path="url(#pbf45555c44)" d="M 341.200609 82.137347 
L 333.742858 97.052847 
L 348.658359 97.052847 
z
" style="fill:#ff9800;stroke:#000000;"/>
    <path clip-path="url(#pbf45555c44)" d="M 442.522222 454.050567 
L 435.627361 467.840288 
L 449.417082 467.840288 
z
" style="fill:#ffd000;stroke:#000000;"/>
    <path clip-path="url(#pbf45555c44)" d="M 360.657856 116.630348 
L 353.266375 131.41331 
L 368.049338 131.41331 
z
" style="fill:#ff9f00;stroke:#000000;"/>
    <path clip-path="url(#pbf45555c44)" d="M 539.343743 65.724665 
L 530.346053 83.720045 
L 548.341433 83.720045 
z
" style="fill:#e80000;stroke:#000000;"/>
    <path clip-path="url(#pbf45555c44)" d="M 458.35994 173.961755 
L 453.191981 184.297673 
L 463.527898 184.297673 
z
" style="fill:#80ff77;stroke:#000000;"/>
    <path clip-path="url(#pbf45555c44)" d="M 408.078164 71.728173 
L 405.053312 77.777879 
L 411.103017 77.777879 
z
" style="fill:#009cff;stroke:#000000;"/>
    <path clip-path="url(#pbf45555c44)" d="M 420.5517 69.644403 
L 417.676115 75.395573 
L 423.427285 75.395573 
z
" style="fill:#008cff;stroke:#000000;"/>
    <path clip-path="url(#pbf45555c44)" d="M 484.128693 146.841229 
L 479.473469 156.151677 
L 488.783917 156.151677 
z
" style="fill:#53ffa4;stroke:#000000;"/>
    <path clip-path="url(#pbf45555c44)" d="M 450.549816 244.025917 
L 440.949331 263.226888 
L 460.150302 263.226888 
z
" style="fill:#9f0000;stroke:#000000;"/>
    <path clip-path="url(#pbf45555c44)" d="M 558.275442 144.882908 
L 548.902893 163.628005 
L 567.647991 163.628005 
z
" style="fill:#bb0000;stroke:#000000;"/>
    <path clip-path="url(#pbf45555c44)" d="M 307.722711 129.396249 
L 301.494466 141.852739 
L 313.950956 141.852739 
z
" style="fill:#deff19;stroke:#000000;"/>
    <path clip-path="url(#pbf45555c44)" d="M 476.914647 196.455132 
L 469.905979 210.472467 
L 483.923315 210.472467 
z
" style="fill:#ffc400;stroke:#000000;"/>
    <path clip-path="url(#pbf45555c44)" d="M 558.266709 350.389418 
L 556.614255 353.694326 
L 559.919163 353.694326 
z
" style="fill:#000cff;stroke:#000000;"/>
    <path clip-path="url(#pbf45555c44)" d="M 348.411523 278.580462 
L 339.123822 297.155865 
L 357.699225 297.155865 
z
" style="fill:#c40000;stroke:#000000;"/>
    <path clip-path="url(#pbf45555c44)" d="M 384.499396 211.675804 
L 376.929494 226.815608 
L 392.069298 226.815608 
z
" style="fill:#ff8d00;stroke:#000000;"/>
    <path clip-path="url(#pbf45555c44)" d="M 529.728077 120.9588 
L 521.149551 138.115853 
L 538.306604 138.115853 
z
" style="fill:#ff2900;stroke:#000000;"/>
    <path clip-path="url(#pbf45555c44)" d="M 210.336703 73.433876 
L 205.849387 82.408508 
L 214.824019 82.408508 
z
" style="fill:#46ffb1;stroke:#000000;"/>
    <path clip-path="url(#pbf45555c44)" d="M 460.01064 111.91449 
L 451.402574 129.130623 
L 468.618707 129.130623 
z
" style="fill:#ff2500;stroke:#000000;"/>
    <path clip-path="url(#pbf45555c44)" d="M 412.592984 276.699986 
L 411.051549 279.782854 
L 414.134418 279.782854 
z
" style="fill:#0000ff;stroke:#000000;"/>
    <path clip-path="url(#pbf45555c44)" d="M 536.616098 419.645021 
L 533.720459 425.436299 
L 539.511737 425.436299 
z
" style="fill:#0090ff;stroke:#000000;"/>
    <path clip-path="url(#pbf45555c44)" d="M 494.433602 83.904369 
L 489.099545 94.572483 
L 499.767659 94.572483 
z
" style="fill:#90ff66;stroke:#000000;"/>
    <path clip-path="url(#pbf45555c44)" d="M 463.004486 112.191818 
L 453.331944 131.536903 
L 472.677029 131.536903 
z
" style="fill:#960000;stroke:#000000;"/>
    <path clip-path="url(#pbf45555c44)" d="M 190.094721 106.297039 
L 183.530794 119.424893 
L 196.658647 119.424893 
z
" style="fill:#fbf100;stroke:#000000;"/>
    <path clip-path="url(#pbf45555c44)" d="M 503.611269 473.670256 
L 493.74431 493.404174 
L 513.478228 493.404174 
z
" style="fill:#800000;stroke:#000000;"/>
    <path clip-path="url(#pbf45555c44)" d="M 537.282748 348.676217 
L 528.516528 366.208655 
L 546.048967 366.208655 
z
" style="fill:#ff1600;stroke:#000000;"/>
    <path clip-path="url(#pbf45555c44)" d="M 541.191864 167.593041 
L 532.629854 184.717062 
L 549.753874 184.717062 
z
" style="fill:#ff2d00;stroke:#000000;"/>
    <path clip-path="url(#pbf45555c44)" d="M 448.146806 60.563286 
L 438.428123 80.000653 
L 457.865489 80.000653 
z
" style="fill:#8d0000;stroke:#000000;"/>
    <path clip-path="url(#pbf45555c44)" d="M 469.810805 72.184841 
L 467.217557 77.371337 
L 472.404052 77.371337 
z
" style="fill:#0070ff;stroke:#000000;"/>
    <path clip-path="url(#pbf45555c44)" d="M 525.654152 166.914553 
L 518.822927 180.577003 
L 532.485377 180.577003 
z
" style="fill:#ffd700;stroke:#000000;"/>
    <path clip-path="url(#pbf45555c44)" d="M 472.267951 479.563369 
L 463.862129 496.375013 
L 480.673772 496.375013 
z
" style="fill:#ff3b00;stroke:#000000;"/>
    <path clip-path="url(#pbf45555c44)" d="M 538.672172 365.007702 
L 532.247367 377.857313 
L 545.096977 377.857313 
z
" style="fill:#eeff09;stroke:#000000;"/>
    <path clip-path="url(#pbf45555c44)" d="M 404.74105 77.546815 
L 399.803153 87.42261 
L 409.678947 87.42261 
z
" style="fill:#6dff8a;stroke:#000000;"/>
    <path clip-path="url(#pbf45555c44)" d="M 434.753557 503.387905 
L 429.055426 514.784167 
L 440.451688 514.784167 
z
" style="fill:#adff49;stroke:#000000;"/>
    <path clip-path="url(#pbf45555c44)" d="M 500.387034 218.731093 
L 495.627318 228.250524 
L 505.146749 228.250524 
z
" style="fill:#5dff9a;stroke:#000000;"/>
    <path clip-path="url(#pbf45555c44)" d="M 192.165111 148.125115 
L 188.390726 155.673886 
L 195.939497 155.673886 
z
" style="fill:#09f0ee;stroke:#000000;"/>
    <path clip-path="url(#pbf45555c44)" d="M 482.986701 315.568363 
L 479.233676 323.074413 
L 486.739726 323.074413 
z
" style="fill:#06ecf1;stroke:#000000;"/>
    <path clip-path="url(#pbf45555c44)" d="M 548.027389 197.150313 
L 546.968684 199.267725 
L 549.086095 199.267725 
z
" style="fill:#0000d6;stroke:#000000;"/>
    <path clip-path="url(#pbf45555c44)" d="M 529.971639 197.440124 
L 529.507022 198.369358 
L 530.436256 198.369358 
z
" style="fill:#00008d;stroke:#000000;"/>
    <path clip-path="url(#pbf45555c44)" d="M 479.18915 400.706034 
L 477.541438 404.001456 
L 480.836861 404.001456 
z
" style="fill:#0008ff;stroke:#000000;"/>
    <path clip-path="url(#pbf45555c44)" d="M 470.632103 292.139173 
L 466.620355 300.16267 
L 474.643851 300.16267 
z
" style="fill:#1cffdb;stroke:#000000;"/>
    <path clip-path="url(#pbf45555c44)" d="M 330.81359 196.346728 
L 330.343155 197.287598 
L 331.284025 197.287598 
z
" style="fill:#00008d;stroke:#000000;"/>
    <path clip-path="url(#pbf45555c44)" d="M 451.189766 231.679716 
L 450.512588 233.034071 
L 451.866943 233.034071 
z
" style="fill:#0000a4;stroke:#000000;"/>
    <path clip-path="url(#pbf45555c44)" d="M 319.87386 77.174915 
L 313.694629 89.533378 
L 326.053092 89.533378 
z
" style="fill:#d7ff1f;stroke:#000000;"/>
    <path clip-path="url(#pbf45555c44)" d="M 238.531882 211.844634 
L 230.960189 226.988022 
L 246.103576 226.988022 
z
" style="fill:#ff8d00;stroke:#000000;"/>
    <path clip-path="url(#pbf45555c44)" d="M 335.991201 128.619301 
L 331.125688 138.350328 
L 340.856715 138.350328 
z
" style="fill:#66ff90;stroke:#000000;"/>
    <path clip-path="url(#pbf45555c44)" d="M 504.718001 292.794053 
L 497.740786 306.748483 
L 511.695215 306.748483 
z
" style="fill:#ffc800;stroke:#000000;"/>
    <path clip-path="url(#pbf45555c44)" d="M 542.735529 84.530507 
L 534.011956 101.977652 
L 551.459101 101.977652 
z
" style="fill:#ff1a00;stroke:#000000;"/>
    <path clip-path="url(#pbf45555c44)" d="M 551.040911 283.889582 
L 542.287453 301.396497 
L 559.794368 301.396497 
z
" style="fill:#ff1600;stroke:#000000;"/>
    <path clip-path="url(#pbf45555c44)" d="M 309.364151 75.716203 
L 301.143651 92.157203 
L 317.584651 92.157203 
z
" style="fill:#ff4e00;stroke:#000000;"/>
    <path clip-path="url(#pbf45555c44)" d="M 444.884374 320.687042 
L 444.219666 322.016457 
L 445.549082 322.016457 
z
" style="fill:#0000a4;stroke:#000000;"/>
    <path clip-path="url(#pbf45555c44)" d="M 419.261095 403.867438 
L 412.779616 416.830396 
L 425.742574 416.830396 
z
" style="fill:#f1fc06;stroke:#000000;"/>
    <path clip-path="url(#pbf45555c44)" d="M 364.578678 166.001429 
L 363.262538 168.633707 
L 365.894817 168.633707 
z
" style="fill:#0000f6;stroke:#000000;"/>
    <path clip-path="url(#pbf45555c44)" d="M 185.252259 150.595712 
L 175.867911 169.364408 
L 194.636606 169.364408 
z
" style="fill:#b60000;stroke:#000000;"/>
    <path clip-path="url(#pbf45555c44)" d="M 209.034842 117.235395 
L 207.988596 119.327886 
L 210.081087 119.327886 
z
" style="fill:#0000d1;stroke:#000000;"/>
    <path clip-path="url(#pbf45555c44)" d="M 535.610342 461.23882 
L 534.645587 463.16833 
L 536.575097 463.16833 
z
" style="fill:#0000c8;stroke:#000000;"/>
   </g>
   <g id="PathCollection_2">
    <path clip-path="url(#pbf45555c44)" d="M 247.576566 262.984815 
C 249.348458 262.984815 251.048017 262.280835 252.300935 261.027917 
C 253.553852 259.775 254.257832 258.075441 254.257832 256.303549 
C 254.257832 254.531656 253.553852 252.832098 252.300935 251.57918 
C 251.048017 250.326263 249.348458 249.622283 247.576566 249.622283 
C 245.804673 249.622283 244.105115 250.326263 242.852197 251.57918 
C 241.59928 252.832098 240.8953 254.531656 240.8953 256.303549 
C 240.8953 258.075441 241.59928 259.775 242.852197 261.027917 
C 244.105115 262.280835 245.804673 262.984815 247.576566 262.984815 
z
" style="fill:#ffd000;stroke:#000000;"/>
    <path clip-path="url(#pbf45555c44)" d="M 208.993262 430.223877 
C 210.123671 430.223877 211.207934 429.77476 212.007254 428.97544 
C 212.806574 428.17612 213.255691 427.091857 213.255691 425.961448 
C 213.255691 424.831039 212.806574 423.746776 212.007254 422.947456 
C 211.207934 422.148136 210.123671 421.699019 208.993262 421.699019 
C 207.862853 421.699019 206.77859 422.148136 205.97927 422.947456 
C 205.17995 423.746776 204.730833 424.831039 204.730833 425.961448 
C 204.730833 427.091857 205.17995 428.17612 205.97927 428.97544 
C 206.77859 429.77476 207.862853 430.223877 208.993262 430.223877 
z
" style="fill:#49ffad;stroke:#000000;"/>
    <path clip-path="url(#pbf45555c44)" d="M 251.788634 388.091813 
C 252.195167 388.091813 252.585104 387.930296 252.872567 387.642833 
C 253.160029 387.355371 253.321547 386.965434 253.321547 386.5589 
C 253.321547 386.152367 253.160029 385.76243 252.872567 385.474968 
C 252.585104 385.187505 252.195167 385.025988 251.788634 385.025988 
C 251.382101 385.025988 250.992163 385.187505 250.704701 385.474968 
C 250.417239 385.76243 250.255721 386.152367 250.255721 386.5589 
C 250.255721 386.965434 250.417239 387.355371 250.704701 387.642833 
C 250.992163 387.930296 251.382101 388.091813 251.788634 388.091813 
z
" style="fill:#001cff;stroke:#000000;"/>
    <path clip-path="url(#pbf45555c44)" d="M 311.38403 493.476113 
C 313.487199 493.476113 315.504511 492.640515 316.991676 491.15335 
C 318.478841 489.666185 319.314439 487.648873 319.314439 485.545704 
C 319.314439 483.442535 318.478841 481.425223 316.991676 479.938058 
C 315.504511 478.450893 313.487199 477.615295 311.38403 477.615295 
C 309.280861 477.615295 307.263549 478.450893 305.776384 479.938058 
C 304.289219 481.425223 303.453621 483.442535 303.453621 485.545704 
C 303.453621 487.648873 304.289219 489.666185 305.776384 491.15335 
C 307.263549 492.640515 309.280861 493.476113 311.38403 493.476113 
z
" style="fill:#ff5200;stroke:#000000;"/>
    <path clip-path="url(#pbf45555c44)" d="M 374.137233 511.454027 
C 374.260543 511.454027 374.378819 511.405036 374.466012 511.317843 
C 374.553205 511.23065 374.602196 511.112374 374.602196 510.989065 
C 374.602196 510.865755 374.553205 510.747479 374.466012 510.660286 
C 374.378819 510.573093 374.260543 510.524102 374.137233 510.524102 
C 374.013924 510.524102 373.895648 510.573093 373.808455 510.660286 
C 373.721262 510.747479 373.672271 510.865755 373.672271 510.989065 
C 373.672271 511.112374 373.721262 511.23065 373.808455 511.317843 
C 373.895648 511.405036 374.013924 511.454027 374.137233 511.454027 
z
" style="fill:#0000ad;stroke:#000000;"/>
    <path clip-path="url(#pbf45555c44)" d="M 267.910457 448.7454 
C 268.674038 448.7454 269.406447 448.442026 269.94638 447.902093 
C 270.486313 447.36216 270.789687 446.629751 270.789687 445.86617 
C 270.789687 445.10259 270.486313 444.370181 269.94638 443.830248 
C 269.406447 443.290315 268.674038 442.986941 267.910457 442.986941 
C 267.146877 442.986941 266.414468 443.290315 265.874535 443.830248 
C 265.334602 444.370181 265.031228 445.10259 265.031228 445.86617 
C 265.031228 446.629751 265.334602 447.36216 265.874535 447.902093 
C 266.414468 448.442026 267.146877 448.7454 267.910457 448.7454 
z
" style="fill:#00acff;stroke:#000000;"/>
    <path clip-path="url(#pbf45555c44)" d="M 210.305706 453.664554 
C 212.601087 453.664554 214.802764 452.75259 216.425843 451.12951 
C 218.048922 449.506431 218.960887 447.304754 218.960887 445.009374 
C 218.960887 442.713993 218.048922 440.512316 216.425843 438.889237 
C 214.802764 437.266158 212.601087 436.354194 210.305706 436.354194 
C 208.010326 436.354194 205.808649 437.266158 204.18557 438.889237 
C 202.56249 440.512316 201.650526 442.713993 201.650526 445.009374 
C 201.650526 447.304754 202.56249 449.506431 204.18557 451.12951 
C 205.808649 452.75259 208.010326 453.664554 210.305706 453.664554 
z
" style="fill:#f60b00;stroke:#000000;"/>
    <path clip-path="url(#pbf45555c44)" d="M 229.667396 280.723542 
C 230.290337 280.723542 230.887848 280.476045 231.328334 280.035559 
C 231.76882 279.595073 232.016317 278.997562 232.016317 278.374621 
C 232.016317 277.75168 231.76882 277.154169 231.328334 276.713684 
C 230.887848 276.273198 230.290337 276.025701 229.667396 276.025701 
C 229.044455 276.025701 228.446944 276.273198 228.006458 276.713684 
C 227.565973 277.154169 227.318475 277.75168 227.318475 278.374621 
C 227.318475 278.997562 227.565973 279.595073 228.006458 280.035559 
C 228.446944 280.476045 229.044455 280.723542 229.667396 280.723542 
z
" style="fill:#0074ff;stroke:#000000;"/>
    <path clip-path="url(#pbf45555c44)" d="M 198.897519 308.736945 
C 201.332148 308.736945 203.66739 307.769656 205.388933 306.048113 
C 207.110477 304.32657 208.077765 301.991328 208.077765 299.556698 
C 208.077765 297.122069 207.110477 294.786827 205.388933 293.065284 
C 203.66739 291.343741 201.332148 290.376452 198.897519 290.376452 
C 196.462889 290.376452 194.127647 291.343741 192.406104 293.065284 
C 190.684561 294.786827 189.717272 297.122069 189.717272 299.556698 
C 189.717272 301.991328 190.684561 304.32657 192.406104 306.048113 
C 194.127647 307.769656 196.462889 308.736945 198.897519 308.736945 
z
" style="fill:#b60000;stroke:#000000;"/>
    <path clip-path="url(#pbf45555c44)" d="M 347.29533 471.736193 
C 347.312416 471.736193 347.328805 471.729405 347.340887 471.717323 
C 347.35297 471.705241 347.359758 471.688851 347.359758 471.671765 
C 347.359758 471.654678 347.35297 471.638289 347.340887 471.626207 
C 347.328805 471.614125 347.312416 471.607336 347.29533 471.607336 
C 347.278243 471.607336 347.261854 471.614125 347.249772 471.626207 
C 347.23769 471.638289 347.230901 471.654678 347.230901 471.671765 
C 347.230901 471.688851 347.23769 471.705241 347.249772 471.717323 
C 347.261854 471.729405 347.278243 471.736193 347.29533 471.736193 
z
" style="fill:#000080;stroke:#000000;"/>
    <path clip-path="url(#pbf45555c44)" d="M 288.119902 290.100566 
C 289.449407 290.100566 290.724638 289.572348 291.66474 288.632246 
C 292.604842 287.692144 293.13306 286.416914 293.13306 285.087409 
C 293.13306 283.757904 292.604842 282.482673 291.66474 281.542571 
C 290.724638 280.602469 289.449407 280.074251 288.119902 280.074251 
C 286.790397 280.074251 285.515166 280.602469 284.575064 281.542571 
C 283.634962 282.482673 283.106745 283.757904 283.106745 285.087409 
C 283.106745 286.416914 283.634962 287.692144 284.575064 288.632246 
C 285.515166 289.572348 286.790397 290.100566 288.119902 290.100566 
z
" style="fill:#8aff6d;stroke:#000000;"/>
    <path clip-path="url(#pbf45555c44)" d="M 296.882649 503.261304 
C 299.441808 503.261304 301.896495 502.244539 303.706094 500.43494 
C 305.515693 498.625342 306.532458 496.170654 306.532458 493.611495 
C 306.532458 491.052336 305.515693 488.597649 303.706094 486.78805 
C 301.896495 484.978451 299.441808 483.961686 296.882649 483.961686 
C 294.32349 483.961686 291.868803 484.978451 290.059204 486.78805 
C 288.249605 488.597649 287.23284 491.052336 287.23284 493.611495 
C 287.23284 496.170654 288.249605 498.625342 290.059204 500.43494 
C 291.868803 502.244539 294.32349 503.261304 296.882649 503.261304 
z
" style="fill:#800000;stroke:#000000;"/>
    <path clip-path="url(#pbf45555c44)" d="M 188.877281 409.311004 
C 190.022242 409.311004 191.120462 408.856106 191.930072 408.046497 
C 192.739682 407.236887 193.19458 406.138666 193.19458 404.993705 
C 193.19458 403.848744 192.739682 402.750524 191.930072 401.940914 
C 191.120462 401.131305 190.022242 400.676407 188.877281 400.676407 
C 187.73232 400.676407 186.634099 401.131305 185.82449 401.940914 
C 185.01488 402.750524 184.559982 403.848744 184.559982 404.993705 
C 184.559982 406.138666 185.01488 407.236887 185.82449 408.046497 
C 186.634099 408.856106 187.73232 409.311004 188.877281 409.311004 
z
" style="fill:#4dffaa;stroke:#000000;"/>
    <path clip-path="url(#pbf45555c44)" d="M 285.505449 386.975239 
C 286.853632 386.975239 288.146778 386.439601 289.100087 385.486292 
C 290.053396 384.532983 290.589034 383.239837 290.589034 381.891654 
C 290.589034 380.543472 290.053396 379.250326 289.100087 378.297017 
C 288.146778 377.343708 286.853632 376.80807 285.505449 376.80807 
C 284.157267 376.80807 282.864121 377.343708 281.910812 378.297017 
C 280.957503 379.250326 280.421864 380.543472 280.421864 381.891654 
C 280.421864 383.239837 280.957503 384.532983 281.910812 385.486292 
C 282.864121 386.439601 284.157267 386.975239 285.505449 386.975239 
z
" style="fill:#90ff66;stroke:#000000;"/>
    <path clip-path="url(#pbf45555c44)" d="M 161.877789 279.795871 
C 163.088819 279.795871 164.250412 279.314724 165.10674 278.458396 
C 165.963068 277.602068 166.444215 276.440475 166.444215 275.229445 
C 166.444215 274.018414 165.963068 272.856822 165.10674 272.000494 
C 164.250412 271.144166 163.088819 270.663018 161.877789 270.663018 
C 160.666759 270.663018 159.505166 271.144166 158.648838 272.000494 
C 157.79251 272.856822 157.311363 274.018414 157.311363 275.229445 
C 157.311363 276.440475 157.79251 277.602068 158.648838 278.458396 
C 159.505166 279.314724 160.666759 279.795871 161.877789 279.795871 
z
" style="fill:#63ff94;stroke:#000000;"/>
    <path clip-path="url(#pbf45555c44)" d="M 308.011099 428.677993 
C 308.706721 428.677993 309.373946 428.401619 309.865825 427.90974 
C 310.357704 427.417861 310.634078 426.750636 310.634078 426.055014 
C 310.634078 425.359392 310.357704 424.692167 309.865825 424.200288 
C 309.373946 423.708409 308.706721 423.432035 308.011099 423.432035 
C 307.315477 423.432035 306.648252 423.708409 306.156373 424.200288 
C 305.664494 424.692167 305.38812 425.359392 305.38812 426.055014 
C 305.38812 426.750636 305.664494 427.417861 306.156373 427.90974 
C 306.648252 428.401619 307.315477 428.677993 308.011099 428.677993 
z
" style="fill:#0090ff;stroke:#000000;"/>
    <path clip-path="url(#pbf45555c44)" d="M 280.259543 416.732051 
C 280.92188 416.732051 281.557178 416.468901 282.025521 416.000558 
C 282.493864 415.532215 282.757014 414.896917 282.757014 414.23458 
C 282.757014 413.572243 282.493864 412.936944 282.025521 412.468601 
C 281.557178 412.000258 280.92188 411.737109 280.259543 411.737109 
C 279.597206 411.737109 278.961907 412.000258 278.493564 412.468601 
C 278.025221 412.936944 277.762072 413.572243 277.762072 414.23458 
C 277.762072 414.896917 278.025221 415.532215 278.493564 416.000558 
C 278.961907 416.468901 279.597206 416.732051 280.259543 416.732051 
z
" style="fill:#0084ff;stroke:#000000;"/>
    <path clip-path="url(#pbf45555c44)" d="M 242.995668 481.405578 
C 243.616451 481.405578 244.211893 481.158939 244.650853 480.719978 
C 245.089813 480.281018 245.336453 479.685577 245.336453 479.064793 
C 245.336453 478.44401 245.089813 477.848569 244.650853 477.409609 
C 244.211893 476.970648 243.616451 476.724009 242.995668 476.724009 
C 242.374884 476.724009 241.779443 476.970648 241.340483 477.409609 
C 240.901523 477.848569 240.654883 478.44401 240.654883 479.064793 
C 240.654883 479.685577 240.901523 480.281018 241.340483 480.719978 
C 241.779443 481.158939 242.374884 481.405578 242.995668 481.405578 
z
" style="fill:#0074ff;stroke:#000000;"/>
    <path clip-path="url(#pbf45555c44)" d="M 235.9719 302.649923 
C 237.308916 302.649923 238.591352 302.118721 239.536765 301.173308 
C 240.482178 300.227894 241.013381 298.945459 241.013381 297.608442 
C 241.013381 296.271426 240.482178 294.988991 239.536765 294.043577 
C 238.591352 293.098164 237.308916 292.566962 235.9719 292.566962 
C 234.634884 292.566962 233.352448 293.098164 232.407035 294.043577 
C 231.461622 294.988991 230.93042 296.271426 230.93042 297.608442 
C 230.93042 298.945459 231.461622 300.227894 232.407035 301.173308 
C 233.352448 302.118721 234.634884 302.649923 235.9719 302.649923 
z
" style="fill:#8dff6a;stroke:#000000;"/>
    <path clip-path="url(#pbf45555c44)" d="M 350.892453 490.725128 
C 351.770887 490.725128 352.613462 490.376123 353.234608 489.754976 
C 353.855755 489.133829 354.204761 488.291255 354.204761 487.412821 
C 354.204761 486.534386 353.855755 485.691812 353.234608 485.070665 
C 352.613462 484.449518 351.770887 484.100513 350.892453 484.100513 
C 350.014019 484.100513 349.171445 484.449518 348.550298 485.070665 
C 347.929151 485.691812 347.580145 486.534386 347.580145 487.412821 
C 347.580145 488.291255 347.929151 489.133829 348.550298 489.754976 
C 349.171445 490.376123 350.014019 490.725128 350.892453 490.725128 
z
" style="fill:#00d8ff;stroke:#000000;"/>
    <path clip-path="url(#pbf45555c44)" d="M 344.772728 413.120689 
C 345.373599 413.120689 345.949941 412.88196 346.374821 412.45708 
C 346.799702 412.0322 347.03843 411.455858 347.03843 410.854987 
C 347.03843 410.254115 346.799702 409.677773 346.374821 409.252893 
C 345.949941 408.828013 345.373599 408.589285 344.772728 408.589285 
C 344.171857 408.589285 343.595515 408.828013 343.170635 409.252893 
C 342.745755 409.677773 342.507026 410.254115 342.507026 410.854987 
C 342.507026 411.455858 342.745755 412.0322 343.170635 412.45708 
C 343.595515 412.88196 344.171857 413.120689 344.772728 413.120689 
z
" style="fill:#006cff;stroke:#000000;"/>
    <path clip-path="url(#pbf45555c44)" d="M 179.545137 236.351603 
C 180.449249 236.351603 181.316453 235.992395 181.955757 235.353091 
C 182.595061 234.713787 182.954268 233.846583 182.954268 232.942471 
C 182.954268 232.038359 182.595061 231.171155 181.955757 230.531851 
C 181.316453 229.892547 180.449249 229.533339 179.545137 229.533339 
C 178.641024 229.533339 177.77382 229.892547 177.134516 230.531851 
C 176.495212 231.171155 176.136005 232.038359 176.136005 232.942471 
C 176.136005 233.846583 176.495212 234.713787 177.134516 235.353091 
C 177.77382 235.992395 178.641024 236.351603 179.545137 236.351603 
z
" style="fill:#00e4f8;stroke:#000000;"/>
    <path clip-path="url(#pbf45555c44)" d="M 239.876576 387.293771 
C 240.679134 387.293771 241.448928 386.974912 242.016422 386.407418 
C 242.583916 385.839924 242.902776 385.07013 242.902776 384.267572 
C 242.902776 383.465015 242.583916 382.69522 242.016422 382.127726 
C 241.448928 381.560232 240.679134 381.241373 239.876576 381.241373 
C 239.074019 381.241373 238.304224 381.560232 237.73673 382.127726 
C 237.169236 382.69522 236.850377 383.465015 236.850377 384.267572 
C 236.850377 385.07013 237.169236 385.839924 237.73673 386.407418 
C 238.304224 386.974912 239.074019 387.293771 239.876576 387.293771 
z
" style="fill:#00bcff;stroke:#000000;"/>
    <path clip-path="url(#pbf45555c44)" d="M 353.946902 326.859017 
C 353.961024 326.859017 353.974569 326.853406 353.984555 326.84342 
C 353.994541 326.833434 354.000152 326.819889 354.000152 326.805767 
C 354.000152 326.791644 353.994541 326.778099 353.984555 326.768113 
C 353.974569 326.758127 353.961024 326.752517 353.946902 326.752517 
C 353.93278 326.752517 353.919234 326.758127 353.909248 326.768113 
C 353.899262 326.778099 353.893652 326.791644 353.893652 326.805767 
C 353.893652 326.819889 353.899262 326.833434 353.909248 326.84342 
C 353.919234 326.853406 353.93278 326.859017 353.946902 326.859017 
z
" style="fill:#000080;stroke:#000000;"/>
    <path clip-path="url(#pbf45555c44)" d="M 402.346207 490.673322 
C 403.567163 490.673322 404.738276 490.188231 405.601622 489.324885 
C 406.464968 488.461539 406.950059 487.290426 406.950059 486.06947 
C 406.950059 484.848514 406.464968 483.677401 405.601622 482.814055 
C 404.738276 481.950709 403.567163 481.465618 402.346207 481.465618 
C 401.125252 481.465618 399.954139 481.950709 399.090792 482.814055 
C 398.227446 483.677401 397.742356 484.848514 397.742356 486.06947 
C 397.742356 487.290426 398.227446 488.461539 399.090792 489.324885 
C 399.954139 490.188231 401.125252 490.673322 402.346207 490.673322 
z
" style="fill:#66ff90;stroke:#000000;"/>
    <path clip-path="url(#pbf45555c44)" d="M 248.903872 260.329886 
C 250.85885 260.329886 252.73402 259.553165 254.116398 258.170787 
C 255.498776 256.788409 256.275497 254.913238 256.275497 252.95826 
C 256.275497 251.003283 255.498776 249.128112 254.116398 247.745734 
C 252.73402 246.363356 250.85885 245.586635 248.903872 245.586635 
C 246.948894 245.586635 245.073724 246.363356 243.691346 247.745734 
C 242.308968 249.128112 241.532247 251.003283 241.532247 252.95826 
C 241.532247 254.913238 242.308968 256.788409 243.691346 258.170787 
C 245.073724 259.553165 246.948894 260.329886 248.903872 260.329886 
z
" style="fill:#ff8900;stroke:#000000;"/>
    <path clip-path="url(#pbf45555c44)" d="M 204.784707 259.680209 
C 206.607465 259.680209 208.355813 258.95602 209.644698 257.667135 
C 210.933583 256.37825 211.657772 254.629902 211.657772 252.807144 
C 211.657772 250.984385 210.933583 249.236037 209.644698 247.947152 
C 208.355813 246.658268 206.607465 245.934078 204.784707 245.934078 
C 202.961949 245.934078 201.2136 246.658268 199.924716 247.947152 
C 198.635831 249.236037 197.911641 250.984385 197.911641 252.807144 
C 197.911641 254.629902 198.635831 256.37825 199.924716 257.667135 
C 201.2136 258.95602 202.961949 259.680209 204.784707 259.680209 
z
" style="fill:#ffbd00;stroke:#000000;"/>
    <path clip-path="url(#pbf45555c44)" d="M 397.817607 427.324675 
C 398.868621 427.324675 399.876729 426.907102 400.619908 426.163923 
C 401.363087 425.420744 401.78066 424.412636 401.78066 423.361622 
C 401.78066 422.310608 401.363087 421.302499 400.619908 420.55932 
C 399.876729 419.816141 398.868621 419.398569 397.817607 419.398569 
C 396.766593 419.398569 395.758484 419.816141 395.015305 420.55932 
C 394.272126 421.302499 393.854554 422.310608 393.854554 423.361622 
C 393.854554 424.412636 394.272126 425.420744 395.015305 426.163923 
C 395.758484 426.907102 396.766593 427.324675 397.817607 427.324675 
z
" style="fill:#30ffc7;stroke:#000000;"/>
    <path clip-path="url(#pbf45555c44)" d="M 196.83639 427.645251 
C 198.025028 427.645251 199.165143 427.173 200.005638 426.332505 
C 200.846132 425.492011 201.318383 424.351896 201.318383 423.163257 
C 201.318383 421.974618 200.846132 420.834503 200.005638 419.994009 
C 199.165143 419.153514 198.025028 418.681263 196.83639 418.681263 
C 195.647751 418.681263 194.507636 419.153514 193.667141 419.994009 
C 192.826647 420.834503 192.354396 421.974618 192.354396 423.163257 
C 192.354396 424.351896 192.826647 425.492011 193.667141 426.332505 
C 194.507636 427.173 195.647751 427.645251 196.83639 427.645251 
z
" style="fill:#5dff9a;stroke:#000000;"/>
    <path clip-path="url(#pbf45555c44)" d="M 292.951609 283.055472 
C 295.440571 283.055472 297.827927 282.066597 299.587888 280.306635 
C 301.34785 278.546673 302.336725 276.159318 302.336725 273.670356 
C 302.336725 271.181394 301.34785 268.794038 299.587888 267.034077 
C 297.827927 265.274115 295.440571 264.28524 292.951609 264.28524 
C 290.462647 264.28524 288.075292 265.274115 286.31533 267.034077 
C 284.555368 268.794038 283.566493 271.181394 283.566493 273.670356 
C 283.566493 276.159318 284.555368 278.546673 286.31533 280.306635 
C 288.075292 282.066597 290.462647 283.055472 292.951609 283.055472 
z
" style="fill:#9f0000;stroke:#000000;"/>
    <path clip-path="url(#pbf45555c44)" d="M 314.582681 334.765991 
C 314.609393 334.765991 314.635015 334.755378 314.653904 334.73649 
C 314.672792 334.717601 314.683405 334.691979 314.683405 334.665267 
C 314.683405 334.638554 314.672792 334.612933 314.653904 334.594044 
C 314.635015 334.575155 314.609393 334.564543 314.582681 334.564543 
C 314.555968 334.564543 314.530346 334.575155 314.511458 334.594044 
C 314.492569 334.612933 314.481956 334.638554 314.481956 334.665267 
C 314.481956 334.691979 314.492569 334.717601 314.511458 334.73649 
C 314.530346 334.755378 314.555968 334.765991 314.582681 334.765991 
z
" style="fill:#000084;stroke:#000000;"/>
    <path clip-path="url(#pbf45555c44)" d="M 155.505033 366.891671 
C 157.518673 366.891671 159.450109 366.091644 160.873967 364.667786 
C 162.297825 363.243928 163.097853 361.312491 163.097853 359.298852 
C 163.097853 357.285213 162.297825 355.353776 160.873967 353.929918 
C 159.450109 352.50606 157.518673 351.706033 155.505033 351.706033 
C 153.491394 351.706033 151.559957 352.50606 150.136099 353.929918 
C 148.712241 355.353776 147.912214 357.285213 147.912214 359.298852 
C 147.912214 361.312491 148.712241 363.243928 150.136099 364.667786 
C 151.559957 366.091644 153.491394 366.891671 155.505033 366.891671 
z
" style="fill:#ff7300;stroke:#000000;"/>
    <path clip-path="url(#pbf45555c44)" d="M 371.895908 373.096829 
C 374.436672 373.096829 376.873715 372.087372 378.670306 370.290781 
C 380.466897 368.49419 381.476353 366.057147 381.476353 363.516383 
C 381.476353 360.97562 380.466897 358.538577 378.670306 356.741986 
C 376.873715 354.945395 374.436672 353.935938 371.895908 353.935938 
C 369.355144 353.935938 366.918102 354.945395 365.121511 356.741986 
C 363.324919 358.538577 362.315463 360.97562 362.315463 363.516383 
C 362.315463 366.057147 363.324919 368.49419 365.121511 370.290781 
C 366.918102 372.087372 369.355144 373.096829 371.895908 373.096829 
z
" style="fill:#840000;stroke:#000000;"/>
    <path clip-path="url(#pbf45555c44)" d="M 197.778033 395.703584 
C 197.904839 395.703584 198.026467 395.653204 198.116132 395.563539 
C 198.205797 395.473874 198.256177 395.352246 198.256177 395.225441 
C 198.256177 395.098635 198.205797 394.977007 198.116132 394.887342 
C 198.026467 394.797677 197.904839 394.747297 197.778033 394.747297 
C 197.651228 394.747297 197.5296 394.797677 197.439935 394.887342 
C 197.35027 394.977007 197.29989 395.098635 197.29989 395.225441 
C 197.29989 395.352246 197.35027 395.473874 197.439935 395.563539 
C 197.5296 395.653204 197.651228 395.703584 197.778033 395.703584 
z
" style="fill:#0000b2;stroke:#000000;"/>
   </g>
   <g id="line2d_1">
    <path clip-path="url(#pbf45555c44)" d="M 427.031875 512.649688 
L 426.90332 503.76113 
L 426.51777 494.880572 
L 425.875573 486.016005 
L 424.977307 477.175407 
L 423.823779 468.366732 
L 422.416028 459.59791 
L 420.755321 450.876831 
L 418.843152 442.211342 
L 416.681243 433.609244 
L 414.271538 425.078277 
L 411.616206 416.626118 
L 408.717638 408.260374 
L 405.57844 399.988573 
L 402.20144 391.81816 
L 398.589674 383.756487 
L 394.746395 375.810809 
L 390.67506 367.988276 
L 386.379334 360.29593 
L 381.863082 352.740691 
L 377.130369 345.32936 
L 372.185454 338.068605 
L 367.032787 330.964962 
L 361.677004 324.024823 
L 356.122927 317.254434 
L 350.375553 310.659887 
L 344.440053 304.247117 
L 338.321771 298.021895 
L 332.026212 291.989824 
L 325.559042 286.156332 
L 318.926079 280.526669 
L 312.133295 275.105901 
L 305.186802 269.898906 
L 298.09285 264.910371 
L 290.857825 260.144784 
L 283.488237 255.606434 
L 275.990719 251.299406 
L 268.372017 247.227576 
L 260.638989 243.394608 
L 252.798592 239.803951 
L 244.857884 236.458836 
L 236.82401 233.362275 
L 228.7042 230.517054 
L 220.505761 227.925733 
L 212.236071 225.590645 
L 203.902574 223.51389 
L 195.512767 221.697338 
L 187.074202 220.142623 
L 178.594472 218.851145 
L 170.081209 217.824066 
L 161.542074 217.06231 
L 152.984752 216.566563 
L 144.416944 216.33727 
L 141.56001 216.320094 
L 141.56001 216.320094 
" style="fill:none;stroke:#0000ff;stroke-linecap:square;"/>
   </g>
   <g id="patch_3">
    <path d="M 46.099375 611.42625 
L 46.099375 18.766875 
" style="fill:none;stroke:#000000;stroke-linecap:square;stroke-linejoin:miter;"/>
   </g>
   <g id="patch_4">
    <path d="M 46.099375 611.42625 
L 617.498125 611.42625 
" style="fill:none;stroke:#000000;stroke-linecap:square;stroke-linejoin:miter;"/>
   </g>
   <g id="patch_5">
    <path d="M 46.099375 18.766875 
L 617.498125 18.766875 
" style="fill:none;stroke:#000000;stroke-linecap:square;stroke-linejoin:miter;"/>
   </g>
   <g id="patch_6">
    <path d="M 617.498125 611.42625 
L 617.498125 18.766875 
" style="fill:none;stroke:#000000;stroke-linecap:square;stroke-linejoin:miter;"/>
   </g>
   <g id="matplotlib.axis_1">
    <g id="xtick_1">
     <g id="line2d_2">
      <defs>
       <path d="M 0 0 
L 0 -4 
" id="m779757869f" style="stroke:#000000;stroke-width:0.5;"/>
      </defs>
      <g>
       <use style="stroke:#000000;stroke-width:0.5;" x="46.099375" xlink:href="#m779757869f" y="611.42625"/>
      </g>
     </g>
     <g id="line2d_3">
      <defs>
       <path d="M 0 0 
L 0 4 
" id="md7e0c286f7" style="stroke:#000000;stroke-width:0.5;"/>
      </defs>
      <g>
       <use style="stroke:#000000;stroke-width:0.5;" x="46.099375" xlink:href="#md7e0c286f7" y="18.766875"/>
      </g>
     </g>
     <g id="text_1">
      <!-- −0.2 -->
      <defs>
       <path d="M 31.78125 66.40625 
Q 24.171875 66.40625 20.328125 58.90625 
Q 16.5 51.421875 16.5 36.375 
Q 16.5 21.390625 20.328125 13.890625 
Q 24.171875 6.390625 31.78125 6.390625 
Q 39.453125 6.390625 43.28125 13.890625 
Q 47.125 21.390625 47.125 36.375 
Q 47.125 51.421875 43.28125 58.90625 
Q 39.453125 66.40625 31.78125 66.40625 
M 31.78125 74.21875 
Q 44.046875 74.21875 50.515625 64.515625 
Q 56.984375 54.828125 56.984375 36.375 
Q 56.984375 17.96875 50.515625 8.265625 
Q 44.046875 -1.421875 31.78125 -1.421875 
Q 19.53125 -1.421875 13.0625 8.265625 
Q 6.59375 17.96875 6.59375 36.375 
Q 6.59375 54.828125 13.0625 64.515625 
Q 19.53125 74.21875 31.78125 74.21875 
" id="BitstreamVeraSans-Roman-30"/>
       <path d="M 19.1875 8.296875 
L 53.609375 8.296875 
L 53.609375 0 
L 7.328125 0 
L 7.328125 8.296875 
Q 12.9375 14.109375 22.625 23.890625 
Q 32.328125 33.6875 34.8125 36.53125 
Q 39.546875 41.84375 41.421875 45.53125 
Q 43.3125 49.21875 43.3125 52.78125 
Q 43.3125 58.59375 39.234375 62.25 
Q 35.15625 65.921875 28.609375 65.921875 
Q 23.96875 65.921875 18.8125 64.3125 
Q 13.671875 62.703125 7.8125 59.421875 
L 7.8125 69.390625 
Q 13.765625 71.78125 18.9375 73 
Q 24.125 74.21875 28.421875 74.21875 
Q 39.75 74.21875 46.484375 68.546875 
Q 53.21875 62.890625 53.21875 53.421875 
Q 53.21875 48.921875 51.53125 44.890625 
Q 49.859375 40.875 45.40625 35.40625 
Q 44.1875 33.984375 37.640625 27.21875 
Q 31.109375 20.453125 19.1875 8.296875 
" id="BitstreamVeraSans-Roman-32"/>
       <path d="M 10.59375 35.5 
L 73.1875 35.5 
L 73.1875 27.203125 
L 10.59375 27.203125 
z
" id="BitstreamVeraSans-Roman-2212"/>
       <path d="M 10.6875 12.40625 
L 21 12.40625 
L 21 0 
L 10.6875 0 
z
" id="BitstreamVeraSans-Roman-2e"/>
      </defs>
      <g transform="translate(31.5296875 624.544375)scale(0.12 -0.12)">
       <use xlink:href="#BitstreamVeraSans-Roman-2212"/>
       <use x="83.7890625" xlink:href="#BitstreamVeraSans-Roman-30"/>
       <use x="147.412109375" xlink:href="#BitstreamVeraSans-Roman-2e"/>
       <use x="179.19921875" xlink:href="#BitstreamVeraSans-Roman-32"/>
      </g>
     </g>
    </g>
    <g id="xtick_2">
     <g id="line2d_4">
      <g>
       <use style="stroke:#000000;stroke-width:0.5;" x="141.3325" xlink:href="#m779757869f" y="611.42625"/>
      </g>
     </g>
     <g id="line2d_5">
      <g>
       <use style="stroke:#000000;stroke-width:0.5;" x="141.3325" xlink:href="#md7e0c286f7" y="18.766875"/>
      </g>
     </g>
     <g id="text_2">
      <!-- 0.0 -->
      <g transform="translate(131.790625 624.544375)scale(0.12 -0.12)">
       <use xlink:href="#BitstreamVeraSans-Roman-30"/>
       <use x="63.623046875" xlink:href="#BitstreamVeraSans-Roman-2e"/>
       <use x="95.41015625" xlink:href="#BitstreamVeraSans-Roman-30"/>
      </g>
     </g>
    </g>
    <g id="xtick_3">
     <g id="line2d_6">
      <g>
       <use style="stroke:#000000;stroke-width:0.5;" x="236.565625" xlink:href="#m779757869f" y="611.42625"/>
      </g>
     </g>
     <g id="line2d_7">
      <g>
       <use style="stroke:#000000;stroke-width:0.5;" x="236.565625" xlink:href="#md7e0c286f7" y="18.766875"/>
      </g>
     </g>
     <g id="text_3">
      <!-- 0.2 -->
      <g transform="translate(227.02375 624.544375)scale(0.12 -0.12)">
       <use xlink:href="#BitstreamVeraSans-Roman-30"/>
       <use x="63.623046875" xlink:href="#BitstreamVeraSans-Roman-2e"/>
       <use x="95.41015625" xlink:href="#BitstreamVeraSans-Roman-32"/>
      </g>
     </g>
    </g>
    <g id="xtick_4">
     <g id="line2d_8">
      <g>
       <use style="stroke:#000000;stroke-width:0.5;" x="331.79875" xlink:href="#m779757869f" y="611.42625"/>
      </g>
     </g>
     <g id="line2d_9">
      <g>
       <use style="stroke:#000000;stroke-width:0.5;" x="331.79875" xlink:href="#md7e0c286f7" y="18.766875"/>
      </g>
     </g>
     <g id="text_4">
      <!-- 0.4 -->
      <defs>
       <path d="M 37.796875 64.3125 
L 12.890625 25.390625 
L 37.796875 25.390625 
z
M 35.203125 72.90625 
L 47.609375 72.90625 
L 47.609375 25.390625 
L 58.015625 25.390625 
L 58.015625 17.1875 
L 47.609375 17.1875 
L 47.609375 0 
L 37.796875 0 
L 37.796875 17.1875 
L 4.890625 17.1875 
L 4.890625 26.703125 
z
" id="BitstreamVeraSans-Roman-34"/>
      </defs>
      <g transform="translate(322.256875 624.544375)scale(0.12 -0.12)">
       <use xlink:href="#BitstreamVeraSans-Roman-30"/>
       <use x="63.623046875" xlink:href="#BitstreamVeraSans-Roman-2e"/>
       <use x="95.41015625" xlink:href="#BitstreamVeraSans-Roman-34"/>
      </g>
     </g>
    </g>
    <g id="xtick_5">
     <g id="line2d_10">
      <g>
       <use style="stroke:#000000;stroke-width:0.5;" x="427.031875" xlink:href="#m779757869f" y="611.42625"/>
      </g>
     </g>
     <g id="line2d_11">
      <g>
       <use style="stroke:#000000;stroke-width:0.5;" x="427.031875" xlink:href="#md7e0c286f7" y="18.766875"/>
      </g>
     </g>
     <g id="text_5">
      <!-- 0.6 -->
      <defs>
       <path d="M 33.015625 40.375 
Q 26.375 40.375 22.484375 35.828125 
Q 18.609375 31.296875 18.609375 23.390625 
Q 18.609375 15.53125 22.484375 10.953125 
Q 26.375 6.390625 33.015625 6.390625 
Q 39.65625 6.390625 43.53125 10.953125 
Q 47.40625 15.53125 47.40625 23.390625 
Q 47.40625 31.296875 43.53125 35.828125 
Q 39.65625 40.375 33.015625 40.375 
M 52.59375 71.296875 
L 52.59375 62.3125 
Q 48.875 64.0625 45.09375 64.984375 
Q 41.3125 65.921875 37.59375 65.921875 
Q 27.828125 65.921875 22.671875 59.328125 
Q 17.53125 52.734375 16.796875 39.40625 
Q 19.671875 43.65625 24.015625 45.921875 
Q 28.375 48.1875 33.59375 48.1875 
Q 44.578125 48.1875 50.953125 41.515625 
Q 57.328125 34.859375 57.328125 23.390625 
Q 57.328125 12.15625 50.6875 5.359375 
Q 44.046875 -1.421875 33.015625 -1.421875 
Q 20.359375 -1.421875 13.671875 8.265625 
Q 6.984375 17.96875 6.984375 36.375 
Q 6.984375 53.65625 15.1875 63.9375 
Q 23.390625 74.21875 37.203125 74.21875 
Q 40.921875 74.21875 44.703125 73.484375 
Q 48.484375 72.75 52.59375 71.296875 
" id="BitstreamVeraSans-Roman-36"/>
      </defs>
      <g transform="translate(417.49 624.544375)scale(0.12 -0.12)">
       <use xlink:href="#BitstreamVeraSans-Roman-30"/>
       <use x="63.623046875" xlink:href="#BitstreamVeraSans-Roman-2e"/>
       <use x="95.41015625" xlink:href="#BitstreamVeraSans-Roman-36"/>
      </g>
     </g>
    </g>
    <g id="xtick_6">
     <g id="line2d_12">
      <g>
       <use style="stroke:#000000;stroke-width:0.5;" x="522.265" xlink:href="#m779757869f" y="611.42625"/>
      </g>
     </g>
     <g id="line2d_13">
      <g>
       <use style="stroke:#000000;stroke-width:0.5;" x="522.265" xlink:href="#md7e0c286f7" y="18.766875"/>
      </g>
     </g>
     <g id="text_6">
      <!-- 0.8 -->
      <defs>
       <path d="M 31.78125 34.625 
Q 24.75 34.625 20.71875 30.859375 
Q 16.703125 27.09375 16.703125 20.515625 
Q 16.703125 13.921875 20.71875 10.15625 
Q 24.75 6.390625 31.78125 6.390625 
Q 38.8125 6.390625 42.859375 10.171875 
Q 46.921875 13.96875 46.921875 20.515625 
Q 46.921875 27.09375 42.890625 30.859375 
Q 38.875 34.625 31.78125 34.625 
M 21.921875 38.8125 
Q 15.578125 40.375 12.03125 44.71875 
Q 8.5 49.078125 8.5 55.328125 
Q 8.5 64.0625 14.71875 69.140625 
Q 20.953125 74.21875 31.78125 74.21875 
Q 42.671875 74.21875 48.875 69.140625 
Q 55.078125 64.0625 55.078125 55.328125 
Q 55.078125 49.078125 51.53125 44.71875 
Q 48 40.375 41.703125 38.8125 
Q 48.828125 37.15625 52.796875 32.3125 
Q 56.78125 27.484375 56.78125 20.515625 
Q 56.78125 9.90625 50.3125 4.234375 
Q 43.84375 -1.421875 31.78125 -1.421875 
Q 19.734375 -1.421875 13.25 4.234375 
Q 6.78125 9.90625 6.78125 20.515625 
Q 6.78125 27.484375 10.78125 32.3125 
Q 14.796875 37.15625 21.921875 38.8125 
M 18.3125 54.390625 
Q 18.3125 48.734375 21.84375 45.5625 
Q 25.390625 42.390625 31.78125 42.390625 
Q 38.140625 42.390625 41.71875 45.5625 
Q 45.3125 48.734375 45.3125 54.390625 
Q 45.3125 60.0625 41.71875 63.234375 
Q 38.140625 66.40625 31.78125 66.40625 
Q 25.390625 66.40625 21.84375 63.234375 
Q 18.3125 60.0625 18.3125 54.390625 
" id="BitstreamVeraSans-Roman-38"/>
      </defs>
      <g transform="translate(512.723125 624.544375)scale(0.12 -0.12)">
       <use xlink:href="#BitstreamVeraSans-Roman-30"/>
       <use x="63.623046875" xlink:href="#BitstreamVeraSans-Roman-2e"/>
       <use x="95.41015625" xlink:href="#BitstreamVeraSans-Roman-38"/>
      </g>
     </g>
    </g>
    <g id="xtick_7">
     <g id="line2d_14">
      <g>
       <use style="stroke:#000000;stroke-width:0.5;" x="617.498125" xlink:href="#m779757869f" y="611.42625"/>
      </g>
     </g>
     <g id="line2d_15">
      <g>
       <use style="stroke:#000000;stroke-width:0.5;" x="617.498125" xlink:href="#md7e0c286f7" y="18.766875"/>
      </g>
     </g>
     <g id="text_7">
      <!-- 1.0 -->
      <defs>
       <path d="M 12.40625 8.296875 
L 28.515625 8.296875 
L 28.515625 63.921875 
L 10.984375 60.40625 
L 10.984375 69.390625 
L 28.421875 72.90625 
L 38.28125 72.90625 
L 38.28125 8.296875 
L 54.390625 8.296875 
L 54.390625 0 
L 12.40625 0 
z
" id="BitstreamVeraSans-Roman-31"/>
      </defs>
      <g transform="translate(607.95625 624.544375)scale(0.12 -0.12)">
       <use xlink:href="#BitstreamVeraSans-Roman-31"/>
       <use x="63.623046875" xlink:href="#BitstreamVeraSans-Roman-2e"/>
       <use x="95.41015625" xlink:href="#BitstreamVeraSans-Roman-30"/>
      </g>
     </g>
    </g>
   </g>
   <g id="matplotlib.axis_2">
    <g id="ytick_1">
     <g id="line2d_16">
      <defs>
       <path d="M 0 0 
L 4 0 
" id="m8c4fd2b421" style="stroke:#000000;stroke-width:0.5;"/>
      </defs>
      <g>
       <use style="stroke:#000000;stroke-width:0.5;" x="46.099375" xlink:href="#m8c4fd2b421" y="611.42625"/>
      </g>
     </g>
     <g id="line2d_17">
      <defs>
       <path d="M 0 0 
L -4 0 
" id="mefe1a2511f" style="stroke:#000000;stroke-width:0.5;"/>
      </defs>
      <g>
       <use style="stroke:#000000;stroke-width:0.5;" x="617.498125" xlink:href="#mefe1a2511f" y="611.42625"/>
      </g>
     </g>
     <g id="text_8">
      <!-- −0.2 -->
      <g transform="translate(12.96 614.7375)scale(0.12 -0.12)">
       <use xlink:href="#BitstreamVeraSans-Roman-2212"/>
       <use x="83.7890625" xlink:href="#BitstreamVeraSans-Roman-30"/>
       <use x="147.412109375" xlink:href="#BitstreamVeraSans-Roman-2e"/>
       <use x="179.19921875" xlink:href="#BitstreamVeraSans-Roman-32"/>
      </g>
     </g>
    </g>
    <g id="ytick_2">
     <g id="line2d_18">
      <g>
       <use style="stroke:#000000;stroke-width:0.5;" x="46.099375" xlink:href="#m8c4fd2b421" y="512.6496875"/>
      </g>
     </g>
     <g id="line2d_19">
      <g>
       <use style="stroke:#000000;stroke-width:0.5;" x="617.498125" xlink:href="#mefe1a2511f" y="512.6496875"/>
      </g>
     </g>
     <g id="text_9">
      <!-- 0.0 -->
      <g transform="translate(23.015625 515.9609375)scale(0.12 -0.12)">
       <use xlink:href="#BitstreamVeraSans-Roman-30"/>
       <use x="63.623046875" xlink:href="#BitstreamVeraSans-Roman-2e"/>
       <use x="95.41015625" xlink:href="#BitstreamVeraSans-Roman-30"/>
      </g>
     </g>
    </g>
    <g id="ytick_3">
     <g id="line2d_20">
      <g>
       <use style="stroke:#000000;stroke-width:0.5;" x="46.099375" xlink:href="#m8c4fd2b421" y="413.873125"/>
      </g>
     </g>
     <g id="line2d_21">
      <g>
       <use style="stroke:#000000;stroke-width:0.5;" x="617.498125" xlink:href="#mefe1a2511f" y="413.873125"/>
      </g>
     </g>
     <g id="text_10">
      <!-- 0.2 -->
      <g transform="translate(23.015625 417.184375)scale(0.12 -0.12)">
       <use xlink:href="#BitstreamVeraSans-Roman-30"/>
       <use x="63.623046875" xlink:href="#BitstreamVeraSans-Roman-2e"/>
       <use x="95.41015625" xlink:href="#BitstreamVeraSans-Roman-32"/>
      </g>
     </g>
    </g>
    <g id="ytick_4">
     <g id="line2d_22">
      <g>
       <use style="stroke:#000000;stroke-width:0.5;" x="46.099375" xlink:href="#m8c4fd2b421" y="315.0965625"/>
      </g>
     </g>
     <g id="line2d_23">
      <g>
       <use style="stroke:#000000;stroke-width:0.5;" x="617.498125" xlink:href="#mefe1a2511f" y="315.0965625"/>
      </g>
     </g>
     <g id="text_11">
      <!-- 0.4 -->
      <g transform="translate(23.015625 318.4078125)scale(0.12 -0.12)">
       <use xlink:href="#BitstreamVeraSans-Roman-30"/>
       <use x="63.623046875" xlink:href="#BitstreamVeraSans-Roman-2e"/>
       <use x="95.41015625" xlink:href="#BitstreamVeraSans-Roman-34"/>
      </g>
     </g>
    </g>
    <g id="ytick_5">
     <g id="line2d_24">
      <g>
       <use style="stroke:#000000;stroke-width:0.5;" x="46.099375" xlink:href="#m8c4fd2b421" y="216.32"/>
      </g>
     </g>
     <g id="line2d_25">
      <g>
       <use style="stroke:#000000;stroke-width:0.5;" x="617.498125" xlink:href="#mefe1a2511f" y="216.32"/>
      </g>
     </g>
     <g id="text_12">
      <!-- 0.6 -->
      <g transform="translate(23.015625 219.63125)scale(0.12 -0.12)">
       <use xlink:href="#BitstreamVeraSans-Roman-30"/>
       <use x="63.623046875" xlink:href="#BitstreamVeraSans-Roman-2e"/>
       <use x="95.41015625" xlink:href="#BitstreamVeraSans-Roman-36"/>
      </g>
     </g>
    </g>
    <g id="ytick_6">
     <g id="line2d_26">
      <g>
       <use style="stroke:#000000;stroke-width:0.5;" x="46.099375" xlink:href="#m8c4fd2b421" y="117.5434375"/>
      </g>
     </g>
     <g id="line2d_27">
      <g>
       <use style="stroke:#000000;stroke-width:0.5;" x="617.498125" xlink:href="#mefe1a2511f" y="117.5434375"/>
      </g>
     </g>
     <g id="text_13">
      <!-- 0.8 -->
      <g transform="translate(23.015625 120.8546875)scale(0.12 -0.12)">
       <use xlink:href="#BitstreamVeraSans-Roman-30"/>
       <use x="63.623046875" xlink:href="#BitstreamVeraSans-Roman-2e"/>
       <use x="95.41015625" xlink:href="#BitstreamVeraSans-Roman-38"/>
      </g>
     </g>
    </g>
    <g id="ytick_7">
     <g id="line2d_28">
      <g>
       <use style="stroke:#000000;stroke-width:0.5;" x="46.099375" xlink:href="#m8c4fd2b421" y="18.766875"/>
      </g>
     </g>
     <g id="line2d_29">
      <g>
       <use style="stroke:#000000;stroke-width:0.5;" x="617.498125" xlink:href="#mefe1a2511f" y="18.766875"/>
      </g>
     </g>
     <g id="text_14">
      <!-- 1.0 -->
      <g transform="translate(23.015625 22.078125)scale(0.12 -0.12)">
       <use xlink:href="#BitstreamVeraSans-Roman-31"/>
       <use x="63.623046875" xlink:href="#BitstreamVeraSans-Roman-2e"/>
       <use x="95.41015625" xlink:href="#BitstreamVeraSans-Roman-30"/>
      </g>
     </g>
    </g>
   </g>
  </g>
 </g>
 <defs>
  <clipPath id="pbf45555c44">
   <rect height="592.659375" width="571.39875" x="46.099375" y="18.766875"/>
  </clipPath>
 </defs>
</svg>
